<svg xmlns="http://www.w3.org/2000/svg" width="495.218" height="311.621" viewBox="0 0 495.218 311.621">
  <g id="Group_9" data-name="Group 9" transform="translate(-0.32 -2.976)">
    <path id="Trazado_823553" data-name="Trazado 823553" d="M84.741,225.319a55.372,55.372,0,0,1,11.324,2.491l0-.006c.051.019.1.033.149.052.136.045.271.093.406.141,20.552,7.325,29.991,5.951,38.072,3.471,21.822-6.7,34.761-35.518,70.1-29.938,14.991,2.367,27.052,5.584,36.453,12.13l-.014-.029c.067.055.132.1.2.157,1.347.944,2.662,1.9,3.905,2.895,18.382,11.985,36.7-3.638,41.953-7.178.386-.279.788-2.5,1.18-2.779.21-.156.327-.248.327-.248v.019c23.034-16.217,59.67-32.643,94.988-28.611,60.684,6.93,85.106,75.678,85.106,75.678H15.425C22.509,237.308,50.842,221.448,84.741,225.319Z" transform="translate(3.899 44.989)" fill="#e2e8ec"/>
    <path id="Trazado_823554" data-name="Trazado 823554" d="M34.252,79.162H70.006a1.506,1.506,0,0,0,1.506-1.505V67.728a1.505,1.505,0,0,0-1.506-1.5H34.252a1.5,1.5,0,0,0-1.506,1.5v9.929A1.505,1.505,0,0,0,34.252,79.162Z" transform="translate(8.37 16.326)" fill="#dbf9bd"/>
    <path id="Trazado_823555" data-name="Trazado 823555" d="M38.781,70.217H64.174" transform="translate(9.928 17.356)" fill="none" stroke="#fff" stroke-miterlimit="10" stroke-width="0.624"/>
    <path id="Trazado_823556" data-name="Trazado 823556" d="M38.781,72.514h7.474" transform="translate(9.928 17.949)" fill="none" stroke="#fff" stroke-miterlimit="10" stroke-width="0.624"/>
    <path id="Trazado_823557" data-name="Trazado 823557" d="M61.423,75.139v5.852l-7.468-5.852Z" transform="translate(13.845 18.627)" fill="#dbf9bd"/>
    <path id="Trazado_823558" data-name="Trazado 823558" d="M368.108,127.054a4.4,4.4,0,1,0-4.343-4.4A4.371,4.371,0,0,0,368.108,127.054Z" transform="translate(93.813 29.756)" fill="none" stroke="#fff" stroke-miterlimit="10" stroke-width="1.089"/>
    <path id="Trazado_823559" data-name="Trazado 823559" d="M21.248,151.372a6.285,6.285,0,1,0-6.2-6.284A6.244,6.244,0,0,0,21.248,151.372Z" transform="translate(3.801 35.06)" fill="none" stroke="#fff" stroke-miterlimit="10" stroke-width="1.089"/>
    <path id="Trazado_823560" data-name="Trazado 823560" d="M208.615,40.218a2.363,2.363,0,1,1-2.363-2.394A2.377,2.377,0,0,1,208.615,40.218Z" transform="translate(52.546 8.995)" fill="none" stroke="#fff" stroke-miterlimit="10" stroke-width="1.089"/>
    <path id="Trazado_823561" data-name="Trazado 823561" d="M45.944,32.921H147.193S146.7,28.9,135.454,25.69s-19.321,5.021-32.038,0S83.954,13.465,67.568,17.481,45.944,32.921,45.944,32.921Z" transform="translate(11.777 3.442)" fill="none" stroke="#fafafa" stroke-linecap="round" stroke-linejoin="round" stroke-miterlimit="10" stroke-width="1.103"/>
    <path id="Trazado_823562" data-name="Trazado 823562" d="M301.049,59.847h52.36s-.253-2.527-6.07-4.548-9.991,3.158-16.568,0-10.065-7.69-18.538-5.163A17.652,17.652,0,0,0,301.049,59.847Z" transform="translate(77.624 11.983)" fill="none" stroke="#fafafa" stroke-linecap="round" stroke-linejoin="round" stroke-miterlimit="10" stroke-width="1.103"/>
    <path id="Trazado_823563" data-name="Trazado 823563" d="M286,22.849a17.162,17.162,0,1,0-19.676,14.2A17.147,17.147,0,0,0,286,22.849Z" transform="translate(64.934 0)" fill="#dbf9bd"/>
    <path id="Trazado_823564" data-name="Trazado 823564" d="M294.5,95.275H116.331V273.819H294.5Z" transform="translate(29.945 23.824)" fill="#fff"/>
    <path id="Trazado_823565" data-name="Trazado 823565" d="M294.5,75.024v28.086H116.331V75.024a10.107,10.107,0,0,1,10.114-10.1H284.387A10.107,10.107,0,0,1,294.5,75.024Z" transform="translate(29.945 15.99)" fill="#dbf9bd"/>
    <path id="Trazado_823566" data-name="Trazado 823566" d="M237.716,88.872a8.372,8.372,0,1,0-8.38-8.372A8.377,8.377,0,0,0,237.716,88.872Z" transform="translate(59.114 17.85)" fill="#12263f"/>
    <path id="Trazado_823567" data-name="Trazado 823567" d="M236.982,87.7a4.8,4.8,0,0,0,4.8-4.8V61.224a4.8,4.8,0,0,0-9.606,0V82.9A4.8,4.8,0,0,0,236.982,87.7Z" transform="translate(59.848 13.797)" fill="#e2e8ec"/>
    <path id="Trazado_823568" data-name="Trazado 823568" d="M190.7,88.872a8.372,8.372,0,1,0-8.38-8.372A8.376,8.376,0,0,0,190.7,88.872Z" transform="translate(46.978 17.85)" fill="#12263f"/>
    <path id="Trazado_823569" data-name="Trazado 823569" d="M189.965,87.7a4.8,4.8,0,0,0,4.8-4.8V61.224a4.8,4.8,0,0,0-9.607,0V82.9A4.8,4.8,0,0,0,189.965,87.7Z" transform="translate(47.712 13.797)" fill="#e2e8ec"/>
    <path id="Trazado_823570" data-name="Trazado 823570" d="M143.681,88.872A8.372,8.372,0,1,0,135.3,80.5,8.376,8.376,0,0,0,143.681,88.872Z" transform="translate(34.841 17.85)" fill="#12263f"/>
    <path id="Trazado_823571" data-name="Trazado 823571" d="M142.948,87.7a4.8,4.8,0,0,0,4.8-4.8V61.224a4.8,4.8,0,0,0-9.607,0V82.9A4.8,4.8,0,0,0,142.948,87.7Z" transform="translate(35.575 13.797)" fill="#e2e8ec"/>
    <path id="Trazado_823572" data-name="Trazado 823572" d="M210.093,151.921h33.876v-33.84H210.093Z" transform="translate(54.147 29.711)" fill="none" stroke="#505c44" stroke-miterlimit="10" stroke-width="2.213"/>
    <path id="Trazado_823573" data-name="Trazado 823573" d="M174.268,151.921h33.877v-33.84H174.268Z" transform="translate(44.9 29.711)" fill="none" stroke="#505c44" stroke-miterlimit="10" stroke-width="2.213"/>
    <path id="Trazado_823574" data-name="Trazado 823574" d="M138.444,151.921H172.32v-33.84H138.444Z" transform="translate(35.653 29.711)" fill="none" stroke="#505c44" stroke-miterlimit="10" stroke-width="2.213"/>
    <path id="Trazado_823575" data-name="Trazado 823575" d="M210.093,186.063h33.876v-33.84H210.093Z" transform="translate(54.147 38.524)" fill="none" stroke="#505c44" stroke-miterlimit="10" stroke-width="2.213"/>
    <path id="Trazado_823576" data-name="Trazado 823576" d="M174.268,186.063h33.877v-33.84H174.268Z" transform="translate(44.9 38.524)" fill="none" stroke="#505c44" stroke-miterlimit="10" stroke-width="2.213"/>
    <path id="Trazado_823577" data-name="Trazado 823577" d="M138.444,186.063H172.32v-33.84H138.444Z" transform="translate(35.653 38.524)" fill="#505c44"/>
    <path id="Trazado_823578" data-name="Trazado 823578" d="M148.174,161.828l9.392,9.671" transform="translate(38.164 41.003)" fill="none" stroke="#fff" stroke-miterlimit="10" stroke-width="2.017"/>
    <path id="Trazado_823579" data-name="Trazado 823579" d="M157.566,161.828l-9.392,9.671" transform="translate(38.164 41.003)" fill="none" stroke="#fff" stroke-miterlimit="10" stroke-width="2.017"/>
    <path id="Trazado_823580" data-name="Trazado 823580" d="M210.093,220.206h33.876v-33.84H210.093Z" transform="translate(54.147 47.337)" fill="none" stroke="#505c44" stroke-miterlimit="10" stroke-width="2.213"/>
    <path id="Trazado_823581" data-name="Trazado 823581" d="M174.268,220.206h33.877v-33.84H174.268Z" transform="translate(44.9 47.337)" fill="none" stroke="#505c44" stroke-miterlimit="10" stroke-width="2.213"/>
    <path id="Trazado_823582" data-name="Trazado 823582" d="M138.444,220.206H172.32v-33.84H138.444Z" transform="translate(35.653 47.337)" fill="none" stroke="#505c44" stroke-miterlimit="10" stroke-width="2.213"/>
    <path id="Trazado_823583" data-name="Trazado 823583" d="M258.9,143.676H242.412v10.845H258.9Z" transform="translate(62.489 36.318)" fill="#505c44"/>
    <path id="Trazado_823584" data-name="Trazado 823584" d="M262.871,147.734H241.306a4.441,4.441,0,1,1,0-8.882h21.565a4.441,4.441,0,1,1,0,8.882Z" transform="translate(61.056 35.073)" fill="#e2e8ec"/>
    <path id="Trazado_823585" data-name="Trazado 823585" d="M219.095,156.755,209.8,166.04l6.556,6.549,9.294-9.285Z" transform="translate(54.071 39.694)" fill="#505c44"/>
    <path id="Trazado_823586" data-name="Trazado 823586" d="M223.358,157.622l-12.984,12.97a3.349,3.349,0,0,1-4.739-4.733l12.985-12.971a3.349,3.349,0,0,1,4.738,4.734Z" transform="translate(52.743 38.443)" fill="#e2e8ec"/>
    <path id="Trazado_823587" data-name="Trazado 823587" d="M260.241,259.9a55.662,55.662,0,1,0-55.721-55.662A55.691,55.691,0,0,0,260.241,259.9Z" transform="translate(52.708 37.584)" fill="#12263f"/>
    <path id="Trazado_823588" data-name="Trazado 823588" d="M259.626,256.3A52.668,52.668,0,1,0,206.9,203.628,52.7,52.7,0,0,0,259.626,256.3Z" transform="translate(53.323 38.198)" fill="#505c44"/>
    <path id="Trazado_823589" data-name="Trazado 823589" d="M258.4,249.128a46.72,46.72,0,1,0-46.769-46.72A46.746,46.746,0,0,0,258.4,249.128Z" transform="translate(54.545 39.419)" fill="#f6f6f6"/>
    <g id="Grupo_1071339" data-name="Grupo 1071339" transform="translate(261.781 176.192)" opacity="0.71">
      <g id="Grupo_1071337" data-name="Grupo 1071337" transform="translate(0 12.677)">
        <path id="Trazado_823590" data-name="Trazado 823590" d="M208.139,166.727l70.89,109.732,32.028-27.514L240.918,150.73Z" transform="translate(-208.139 -150.73)" fill="#fff"/>
      </g>
      <g id="Grupo_1071338" data-name="Grupo 1071338" transform="translate(37.779)">
        <path id="Trazado_823591" data-name="Trazado 823591" d="M238.167,142.893l70.89,109.733,4.122-13.756L243.04,140.654Z" transform="translate(-238.167 -140.654)" fill="#fff"/>
      </g>
    </g>
    <path id="Trazado_823592" data-name="Trazado 823592" d="M249.236,165.105a1.176,1.176,0,0,1-1.176-1.176v-2.758a1.176,1.176,0,0,1,2.353,0v2.758A1.176,1.176,0,0,1,249.236,165.105Z" transform="translate(63.947 40.53)" fill="#12263f"/>
    <path id="Trazado_823593" data-name="Trazado 823593" d="M249.236,227.151a1.176,1.176,0,0,1-1.176-1.176v-2.759a1.176,1.176,0,0,1,2.353,0v2.759A1.175,1.175,0,0,1,249.236,227.151Z" transform="translate(63.947 56.545)" fill="#12263f"/>
    <path id="Trazado_823594" data-name="Trazado 823594" d="M228.453,173.7a1.172,1.172,0,0,1-.832-.345l-1.954-1.951a1.176,1.176,0,1,1,1.664-1.662l1.954,1.951a1.176,1.176,0,0,1-.833,2.007Z" transform="translate(58.078 42.958)" fill="#12263f"/>
    <path id="Trazado_823595" data-name="Trazado 823595" d="M272.373,217.577a1.176,1.176,0,0,1-.832-.343l-1.954-1.953a1.176,1.176,0,1,1,1.664-1.662l1.953,1.951a1.175,1.175,0,0,1-.832,2.007Z" transform="translate(69.415 54.283)" fill="#12263f"/>
    <path id="Trazado_823596" data-name="Trazado 823596" d="M226.5,217.577a1.175,1.175,0,0,1-.832-2.007l1.954-1.951a1.176,1.176,0,0,1,1.665,1.662l-1.954,1.953A1.176,1.176,0,0,1,226.5,217.577Z" transform="translate(58.078 54.283)" fill="#12263f"/>
    <path id="Trazado_823597" data-name="Trazado 823597" d="M270.419,173.7a1.176,1.176,0,0,1-.832-2.007l1.954-1.951a1.176,1.176,0,1,1,1.663,1.662l-1.953,1.951A1.172,1.172,0,0,1,270.419,173.7Z" transform="translate(69.415 42.958)" fill="#12263f"/>
    <path id="Trazado_823598" data-name="Trazado 823598" d="M219.845,194.465h-2.762a1.176,1.176,0,1,1,0-2.351h2.762a1.176,1.176,0,1,1,0,2.351Z" transform="translate(55.648 48.821)" fill="#12263f"/>
    <path id="Trazado_823599" data-name="Trazado 823599" d="M281.956,194.465h-2.762a1.176,1.176,0,1,1,0-2.351h2.762a1.176,1.176,0,1,1,0,2.351Z" transform="translate(71.68 48.821)" fill="#12263f"/>
    <path id="Trazado_823600" data-name="Trazado 823600" d="M252.383,198.267H246.76V173.92a2.812,2.812,0,0,1,5.624,0v24.347Z" transform="translate(63.611 43.4)" fill="#12263f"/>
    <path id="Trazado_823601" data-name="Trazado 823601" d="M250.318,200.458a6.441,6.441,0,1,0-6.448-6.44A6.444,6.444,0,0,0,250.318,200.458Z" transform="translate(62.865 47.649)" fill="#12263f"/>
    <path id="Trazado_823602" data-name="Trazado 823602" d="M101.127,146.947l10.183,44.86a12.1,12.1,0,0,1-4.3,11.186L76.6,226.744l.562-21.87,15.186-12.379L76.6,145.713Z" transform="translate(19.69 36.844)" fill="#12263f"/>
    <path id="Trazado_823603" data-name="Trazado 823603" d="M66.269,213.505l14.64-7.649-5.782-8.15-15.9,8.636,5.074,6.428Z" transform="translate(15.206 50.264)" fill="#f0acac"/>
    <path id="Trazado_823604" data-name="Trazado 823604" d="M63.835,201.846s2.474,9.057,9.6,8.55l2.746,21.579L55.161,205.352Z" transform="translate(14.156 51.333)" fill="#12263f"/>
    <path id="Trazado_823605" data-name="Trazado 823605" d="M76.7,231.25,55.681,204.628l-2.517,1.983L74.18,233.233Z" transform="translate(13.64 52.051)" fill="#fff"/>
    <path id="Trazado_823606" data-name="Trazado 823606" d="M70.808,210.974a12.755,12.755,0,0,0-4.094-.413" transform="translate(17.138 53.578)" fill="none" stroke="#fff" stroke-linecap="round" stroke-linejoin="round" stroke-miterlimit="10" stroke-width="1.504"/>
    <path id="Trazado_823607" data-name="Trazado 823607" d="M71.292,213.484a12.735,12.735,0,0,0-4.094-.411" transform="translate(17.263 54.226)" fill="none" stroke="#fff" stroke-linecap="round" stroke-linejoin="round" stroke-miterlimit="10" stroke-width="1.504"/>
    <path id="Trazado_823608" data-name="Trazado 823608" d="M71.776,215.994a12.8,12.8,0,0,0-4.094-.413" transform="translate(17.388 54.874)" fill="none" stroke="#fff" stroke-linecap="round" stroke-linejoin="round" stroke-miterlimit="10" stroke-width="1.504"/>
    <path id="Trazado_823609" data-name="Trazado 823609" d="M77.261,234.7l1.481-16.22-9.986-.511L67.27,235.791h8.194Z" transform="translate(17.281 55.495)" fill="#f0acac"/>
    <path id="Trazado_823610" data-name="Trazado 823610" d="M66.792,228.688s8.651,3.669,12.664-2.232l18.663,11.209H64.177Z" transform="translate(16.483 57.685)" fill="#12263f"/>
    <path id="Trazado_823611" data-name="Trazado 823611" d="M98.118,235.365H64.177v3.2H98.118Z" transform="translate(16.483 59.985)" fill="#fff"/>
    <path id="Trazado_823612" data-name="Trazado 823612" d="M78.847,227.621a12.746,12.746,0,0,0-2.86,2.957" transform="translate(19.531 57.986)" fill="none" stroke="#fff" stroke-linecap="round" stroke-linejoin="round" stroke-miterlimit="10" stroke-width="1.504"/>
    <path id="Trazado_823613" data-name="Trazado 823613" d="M81.12,228.8a12.712,12.712,0,0,0-2.86,2.957" transform="translate(20.118 58.289)" fill="none" stroke="#fff" stroke-linecap="round" stroke-linejoin="round" stroke-miterlimit="10" stroke-width="1.504"/>
    <path id="Trazado_823614" data-name="Trazado 823614" d="M83.393,229.971a12.755,12.755,0,0,0-2.86,2.955" transform="translate(20.705 58.592)" fill="none" stroke="#fff" stroke-linecap="round" stroke-linejoin="round" stroke-miterlimit="10" stroke-width="1.504"/>
    <path id="Trazado_823615" data-name="Trazado 823615" d="M70.313,145.821l-4.581,94.612H83.106l12.655-94.3Z" transform="translate(16.884 36.871)" fill="#dbf9bd"/>
    <path id="Trazado_823616" data-name="Trazado 823616" d="M98.708,146.779l-10.53,16.49-2.2-16.907Z" transform="translate(22.11 37.011)" fill="#dbf9bd"/>
    <path id="Trazado_823617" data-name="Trazado 823617" d="M134.116,135.923l-10.377.813,1.856-10.413,10.84.911Z" transform="translate(31.857 31.838)" fill="#f0acac"/>
    <path id="Trazado_823618" data-name="Trazado 823618" d="M141.393,136.176a7.271,7.271,0,1,1,.79-10.247A7.28,7.28,0,0,1,141.393,136.176Z" transform="translate(33.314 31.082)" fill="#f0acac"/>
    <path id="Trazado_823619" data-name="Trazado 823619" d="M137.134,123.734s-1.32-3.04-4.4-.788-5.814,6.861-1.5,12.769Z" transform="translate(33.215 30.753)" fill="#f0acac"/>
    <path id="Trazado_823620" data-name="Trazado 823620" d="M135.465,123.814l8.356-2.1a1.372,1.372,0,0,1,1.7.825,1.18,1.18,0,0,1-.627,1.476l-8.489,3.793Z" transform="translate(34.884 30.632)" fill="#f0acac"/>
    <path id="Trazado_823621" data-name="Trazado 823621" d="M104.072,112.74l13.707,21.665a7.579,7.579,0,0,1-12.95,7.857L89.719,121.448a8.4,8.4,0,1,1,14.354-8.707Z" transform="translate(22.718 27.221)" fill="#505c44"/>
    <path id="Trazado_823622" data-name="Trazado 823622" d="M97.434,132.306l.809-11.862,2.945,17.037Z" transform="translate(25.067 30.321)" fill="#505c44"/>
    <path id="Trazado_823623" data-name="Trazado 823623" d="M107.379,128.081l30.18-3.542-.094,13.768L109.4,141.92a7,7,0,1,1-2.018-13.839Z" transform="translate(26.002 31.378)" fill="#505c44"/>
    <path id="Trazado_823624" data-name="Trazado 823624" d="M66.2,162.092s3.366.27,2.816-3.573-3.388-8.5-10.768-7.461Z" transform="translate(14.953 38.185)" fill="#f0acac"/>
    <path id="Trazado_823625" data-name="Trazado 823625" d="M45.212,191.231H79.088v-33.84H45.212Z" transform="translate(11.588 39.858)" fill="#505c44"/>
    <path id="Trazado_823626" data-name="Trazado 823626" d="M46.457,191.231H80.333v-33.84H46.457Z" transform="translate(11.909 39.858)" fill="#505c44"/>
    <path id="Trazado_823627" data-name="Trazado 823627" d="M53.816,159.893a7.407,7.407,0,1,1,8.838,5.619A7.4,7.4,0,0,1,53.816,159.893Z" transform="translate(13.762 38.179)" fill="#f0acac"/>
    <path id="Trazado_823628" data-name="Trazado 823628" d="M68.149,130.322l-.332,30.352L54.5,160.049l-.354-29.494a7.007,7.007,0,1,1,14-.233Z" transform="translate(13.891 31.009)" fill="#505c44"/>
    <path id="Trazado_823629" data-name="Trazado 823629" d="M85.208,121.759l-18.361,17.9a7.577,7.577,0,0,1-10.388-11.019l17.236-19.1a8.4,8.4,0,1,1,11.513,12.213Z" transform="translate(13.927 26.863)" fill="#505c44"/>
    <path id="Trazado_823630" data-name="Trazado 823630" d="M101.8,108.766,75.692,107.05c-2.354-.155-6.552,4.117-6.3,6.46l-.015,42.318,33.622,1.1,3.415-42.956A4.934,4.934,0,0,0,101.8,108.766Z" transform="translate(17.824 26.863)" fill="#505c44"/>
    <path id="Trazado_823631" data-name="Trazado 823631" d="M69.373,129.509l7.583-7.393-7.58,20.022Z" transform="translate(17.824 30.753)" fill="#505c44"/>
    <path id="Trazado_823632" data-name="Trazado 823632" d="M91.769,95.163a3.532,3.532,0,0,0,3.141,3.863,3.5,3.5,0,0,0,3.749-3.245,3.532,3.532,0,0,0-3.141-3.863A3.5,3.5,0,0,0,91.769,95.163Z" transform="translate(23.602 22.954)" fill="#12263f"/>
    <path id="Trazado_823633" data-name="Trazado 823633" d="M92.186,102.039l-.16,8.52c-.05,2.992-1.864,4.556-4.72,4.474-2.437-.07-5.093-1.3-4.936-3.937L83.247,97.7Z" transform="translate(21.177 24.451)" fill="#f0acac"/>
    <path id="Trazado_823634" data-name="Trazado 823634" d="M91.948,107.359s-6.959.455-8.97-7.4c-.634-2.474,9.09.86,9.09.86Z" transform="translate(21.328 24.798)" fill="#12263f"/>
    <path id="Trazado_823635" data-name="Trazado 823635" d="M90.149,108.525c4.871.1,8.964-3.783,9.182-7.884l.412-8.58a9.435,9.435,0,0,0-8.423-10.018c-5.088-.456-10.468,3.349-10.916,8.6l-.24,6.69A10.712,10.712,0,0,0,90.149,108.525Z" transform="translate(20.608 20.4)" fill="#f0acac"/>
    <path id="Trazado_823636" data-name="Trazado 823636" d="M91.572,93.829l.227,2.8-1.2.024" transform="translate(23.302 23.451)" fill="none" stroke="#12263f" stroke-linecap="round" stroke-linejoin="round" stroke-miterlimit="10" stroke-width="0.597"/>
    <path id="Trazado_823637" data-name="Trazado 823637" d="M87.6,89.315s2-.133,2,.7c0,0-.012.567-1.754.648s-2.193-.058-2.342-.594S86.668,89.3,87.6,89.315Z" transform="translate(21.987 22.284)" fill="#12263f"/>
    <path id="Trazado_823638" data-name="Trazado 823638" d="M94.167,90.882s-1.644-.2-1.793.58c0,0-.088.531,1.352.677s1.912-.035,2.057-.462C95.945,91.193,94.949,90.909,94.167,90.882Z" transform="translate(23.761 22.684)" fill="#12263f"/>
    <path id="Trazado_823639" data-name="Trazado 823639" d="M92.8,93.58a.838.838,0,1,0,.88-.82A.853.853,0,0,0,92.8,93.58Z" transform="translate(23.871 23.175)" fill="#12263f"/>
    <path id="Trazado_823640" data-name="Trazado 823640" d="M86.971,93.276a.838.838,0,1,0,.88-.82A.852.852,0,0,0,86.971,93.276Z" transform="translate(22.366 23.097)" fill="#12263f"/>
    <path id="Trazado_823641" data-name="Trazado 823641" d="M88.575,97.041a2.778,2.778,0,0,0,2.8.916" transform="translate(22.781 24.28)" fill="none" stroke="#12263f" stroke-linecap="round" stroke-linejoin="round" stroke-miterlimit="10" stroke-width="0.597"/>
    <path id="Trazado_823642" data-name="Trazado 823642" d="M98.419,78.862c-1.866-.8-6.628-1.683-7.678,2.523C86,81.023,78.462,81.112,77.7,85.215c-1.113,6.029,3.171,12,3.171,12l1.206.613s3.06-1.594,2.27-8.806c0,0,10.951,2.637,16.089-.138S104.021,81.269,98.419,78.862Z" transform="translate(19.927 19.415)" fill="#12263f"/>
    <path id="Trazado_823643" data-name="Trazado 823643" d="M76.61,94.647a3.5,3.5,0,0,0,3.111,3.825,3.462,3.462,0,0,0,3.712-3.213,3.427,3.427,0,1,0-6.823-.612Z" transform="translate(19.689 22.829)" fill="#f0acac"/>
    <path id="Trazado_823644" data-name="Trazado 823644" d="M80.635,95.47s.218-2.552-2.182-2.362" transform="translate(20.168 23.262)" fill="none" stroke="#12263f" stroke-linecap="round" stroke-linejoin="round" stroke-miterlimit="10" stroke-width="0.597"/>
    <path id="Trazado_823645" data-name="Trazado 823645" d="M79.746,107.4l15.627,1.027s.5,5.381-6.456,5.01C81.1,113.02,79.746,107.4,79.746,107.4Z" transform="translate(20.502 26.954)" fill="#f0acac"/>
    <path id="Trazado_823646" data-name="Trazado 823646" d="M342.661,214.089l-15.408-7.175,5.558-8.648,16.749,8.129-4.913,6.844Z" transform="translate(84.388 50.409)" fill="#f0acac"/>
    <path id="Trazado_823647" data-name="Trazado 823647" d="M344.261,202.06s-2.116,9.426-9.461,9.24l-1.805,22.309,20.348-28.352Z" transform="translate(85.87 51.388)" fill="#12263f"/>
    <path id="Trazado_823648" data-name="Trazado 823648" d="M335.662,234.853l20.349-28.35-2.68-1.92-20.35,28.35Z" transform="translate(85.867 52.039)" fill="#fff"/>
    <path id="Trazado_823649" data-name="Trazado 823649" d="M334.242,211.849a13.126,13.126,0,0,1,4.19-.616" transform="translate(86.192 53.756)" fill="none" stroke="#fff" stroke-linecap="round" stroke-linejoin="round" stroke-miterlimit="10" stroke-width="1.548"/>
    <path id="Trazado_823650" data-name="Trazado 823650" d="M333.863,214.452a13.17,13.17,0,0,1,4.19-.616" transform="translate(86.094 54.428)" fill="none" stroke="#fff" stroke-linecap="round" stroke-linejoin="round" stroke-miterlimit="10" stroke-width="1.548"/>
    <path id="Trazado_823651" data-name="Trazado 823651" d="M333.484,217.055a13.17,13.17,0,0,1,4.19-.616" transform="translate(85.997 55.099)" fill="none" stroke="#fff" stroke-linecap="round" stroke-linejoin="round" stroke-miterlimit="10" stroke-width="1.548"/>
    <path id="Trazado_823652" data-name="Trazado 823652" d="M313.859,136.37S303.791,173.9,302.31,181.3s-4.445,22.2,1.778,27.526,30.124,18.106,30.124,18.106L343,211.16l-14.241-8.55Z" transform="translate(77.429 34.432)" fill="#12263f"/>
    <path id="Trazado_823653" data-name="Trazado 823653" d="M322.51,234.762l-3.14-16.689,10.275-.526,3.145,18.333H324.36Z" transform="translate(82.354 55.385)" fill="#f0acac"/>
    <path id="Trazado_823654" data-name="Trazado 823654" d="M337.052,228.572s-8.9,3.774-13.03-2.3l-19.2,11.532h34.922Z" transform="translate(78.598 57.639)" fill="#12263f"/>
    <path id="Trazado_823655" data-name="Trazado 823655" d="M304.819,238.737h34.923v-3.3H304.819Z" transform="translate(78.598 60.004)" fill="#fff"/>
    <path id="Trazado_823656" data-name="Trazado 823656" d="M318.086,227.475a13.106,13.106,0,0,1,2.941,3.042" transform="translate(82.022 57.948)" fill="none" stroke="#fff" stroke-linecap="round" stroke-linejoin="round" stroke-miterlimit="10" stroke-width="1.548"/>
    <path id="Trazado_823657" data-name="Trazado 823657" d="M315.747,228.684a13.1,13.1,0,0,1,2.943,3.042" transform="translate(81.418 58.26)" fill="none" stroke="#fff" stroke-linecap="round" stroke-linejoin="round" stroke-miterlimit="10" stroke-width="1.548"/>
    <path id="Trazado_823658" data-name="Trazado 823658" d="M313.409,229.893a13.107,13.107,0,0,1,2.941,3.042" transform="translate(80.815 58.572)" fill="none" stroke="#fff" stroke-linecap="round" stroke-linejoin="round" stroke-miterlimit="10" stroke-width="1.548"/>
    <path id="Trazado_823659" data-name="Trazado 823659" d="M311.282,136.37l-1,56.617a31.343,31.343,0,0,0,.484,6.058l8.419,43.663h17.621l-4.917-49.243c.208-9.057,3.216-19.2,4.342-30.244,0,0,3.454-20.49-6.016-26.746Z" transform="translate(80.006 34.432)" fill="#12263f"/>
    <path id="Trazado_823660" data-name="Trazado 823660" d="M308.711,132.355,279.9,121.826l-3.349,5.6L304.638,142.3a6.422,6.422,0,0,0,8.608-7.146C312.834,132.892,310.876,133.125,308.711,132.355Z" transform="translate(71.301 30.678)" fill="#f0acac"/>
    <path id="Trazado_823661" data-name="Trazado 823661" d="M279.254,118.757a2.145,2.145,0,0,0-2.013-.628,1.274,1.274,0,0,0-.811,1.987l.414.682c-.925.354-2.832.443-6.325-3.08a1.761,1.761,0,0,0-2.156-.313,1.08,1.08,0,0,0-.328,1.418c.011.024.029.047.042.069a1.6,1.6,0,0,0-1.4.148,1.081,1.081,0,0,0-.328,1.418,1.318,1.318,0,0,0,.121.2,1.4,1.4,0,0,0-.658.228,1.081,1.081,0,0,0-.328,1.418,1.576,1.576,0,0,0,.3.415c.045.047.092.087.137.132-.02.013-.044.021-.064.035a1.082,1.082,0,0,0-.328,1.418,1.556,1.556,0,0,0,.3.415,20.628,20.628,0,0,0,2.857,2.431h0l.044.029a13.609,13.609,0,0,0,1.316.8c2.018,1.171,6.337.19,10.051.786l2.9-5.464Z" transform="translate(68.41 29.474)" fill="#f0acac"/>
    <path id="Trazado_823662" data-name="Trazado 823662" d="M274.816,143.381,288.743,111.6,256.925,97.686,243,129.469Z" transform="translate(62.64 24.447)" fill="#505c44"/>
    <path id="Trazado_823663" data-name="Trazado 823663" d="M277.772,119.646l-2.823-3.287a1.149,1.149,0,0,0-1.9,1.267l1.423,2.8a7.793,7.793,0,0,0,1.682,7.112Z" transform="translate(70.366 29.163)" fill="#f0acac"/>
    <path id="Trazado_823664" data-name="Trazado 823664" d="M316.728,132.669l-10.488,8.365a6.418,6.418,0,0,1-7.373.445c-3.245-2-5.229-3.847-2.891-6.857L307.5,122.954Z" transform="translate(76.052 30.969)" fill="#f0acac"/>
    <path id="Trazado_823665" data-name="Trazado 823665" d="M323.317,124.848s-1.4,6.874-9.666,13.115L300.9,125.934l10.32-11.488Z" transform="translate(77.585 28.773)" fill="#12263f"/>
    <path id="Trazado_823666" data-name="Trazado 823666" d="M335.089,131.766l22.176,27.944,5.021-3.321s-12.727-23.665-18.639-31.13a6.422,6.422,0,0,0-11.046,1.8C331.808,129.214,333.613,130.006,335.089,131.766Z" transform="translate(85.719 30.94)" fill="#f0acac"/>
    <path id="Trazado_823667" data-name="Trazado 823667" d="M353.239,158.448a2.082,2.082,0,0,0,1.428,1.471,1.239,1.239,0,0,0,1.617-1.319l-.036-.776c.955.128,2.626.939,3.969,5.571a1.712,1.712,0,0,0,1.7,1.269,1.052,1.052,0,0,0,.941-1.059c0-.025,0-.053,0-.079a1.559,1.559,0,0,0,1.264.525,1.055,1.055,0,0,0,.941-1.059,1.527,1.527,0,0,0-.01-.226,1.353,1.353,0,0,0,.667.111,1.054,1.054,0,0,0,.941-1.059,1.486,1.486,0,0,0-.063-.493c-.018-.062-.038-.118-.055-.179a.681.681,0,0,0,.072,0,1.054,1.054,0,0,0,.941-1.058,1.492,1.492,0,0,0-.063-.494,19.748,19.748,0,0,0-1.31-3.4h0l-.024-.045a13.462,13.462,0,0,0-.751-1.3c-1.179-1.937-5.326-3.105-8.219-5.342l-5.02,3.321Z" transform="translate(90.819 37.822)" fill="#f0acac"/>
    <path id="Trazado_823668" data-name="Trazado 823668" d="M333.542,116.243l10.089,8.842a6.4,6.4,0,0,1,1.735,7.173c-1.4,3.543-2.871,5.818-6.249,4.049l-13.526-9.276Z" transform="translate(83.959 29.237)" fill="#f0acac"/>
    <path id="Trazado_823669" data-name="Trazado 823669" d="M322.433,111.341a26.911,26.911,0,0,1,16.255,7.169l-6.872,12.765-13.51-4.681Z" transform="translate(82.079 27.971)" fill="#dbf9bd"/>
    <path id="Trazado_823670" data-name="Trazado 823670" d="M314.619,112.1s-8.387,2.316-8.414,13.547c-.015,6.132,6.128,17.181,6.128,17.181l18.933.1s2.78-7.706,4.445-14.668-3.665-13.583-10.156-16.924Z" transform="translate(78.955 27.972)" fill="#dbf9bd"/>
    <path id="Trazado_823671" data-name="Trazado 823671" d="M330.568,128.277l-7.429-5.323,5.731,11.084Z" transform="translate(83.326 30.969)" fill="#12263f"/>
    <path id="Trazado_823672" data-name="Trazado 823672" d="M318.263,118.87c2.627-.391,3.559-2.149,3.167-4.772L318.51,99.061l-7.922,1.268,2.21,14.5A4.805,4.805,0,0,0,318.263,118.87Z" transform="translate(80.087 24.802)" fill="#f0acac"/>
    <path id="Trazado_823673" data-name="Trazado 823673" d="M316.444,101.426s2.569,8.015-4.242,10.742l-.63-4.785,7-5.288" transform="translate(80.34 25.412)" fill="#12263f"/>
    <path id="Trazado_823674" data-name="Trazado 823674" d="M312.534,111.755c4.947-.468,8.618-4.424,8.2-8.834l-1.37-14.442-8.34.024c-3.074.291-7.3,4.363-7.044,7.1l1.456,8.967C305.74,107.779,308.375,112.148,312.534,111.755Z" transform="translate(78.378 22.07)" fill="#f0acac"/>
    <path id="Trazado_823675" data-name="Trazado 823675" d="M305.851,97.106l-1.9,4.838a.7.7,0,0,0,.731,1.044l3.261-.3Z" transform="translate(78.348 24.297)" fill="#f0acac"/>
    <path id="Trazado_823676" data-name="Trazado 823676" d="M307.113,95.326s-1.778.049-1.712.791c0,0,.057.5,1.605.427s1.934-.235,2.022-.721S307.939,95.238,307.113,95.326Z" transform="translate(78.747 23.83)" fill="#12263f"/>
    <path id="Trazado_823677" data-name="Trazado 823677" d="M307.139,98.239a.744.744,0,1,1-.847-.651A.757.757,0,0,1,307.139,98.239Z" transform="translate(78.814 24.419)" fill="#12263f"/>
    <path id="Trazado_823678" data-name="Trazado 823678" d="M306.384,102.875a2.092,2.092,0,0,0,1.817-1.449" transform="translate(79.002 25.412)" fill="none" stroke="#12263f" stroke-linecap="round" stroke-linejoin="round" stroke-miterlimit="10" stroke-width="0.597"/>
    <path id="Trazado_823679" data-name="Trazado 823679" d="M319.005,110.66l5.366.857s-5.638,9.125-11.187,6.937c-6.4-2.524,2.086-7.322,2.086-7.322Z" transform="translate(80.14 27.796)" fill="#f0acac"/>
    <path id="Trazado_823680" data-name="Trazado 823680" d="M318.844,100.938a6.9,6.9,0,0,1-4.987-4.995l-11.093,2.188s-1.717-11.038,11.561-13.118A12.879,12.879,0,0,1,327.477,90.4a10.8,10.8,0,0,1,.853,10.492,16.983,16.983,0,0,1-6.756,7.374l-1.025-5.526S319.589,101.127,318.844,100.938Z" transform="translate(78.048 21.124)" fill="#12263f"/>
    <path id="Trazado_823681" data-name="Trazado 823681" d="M321.177,97.73a3.529,3.529,0,0,1-3.488,3.546,3.492,3.492,0,0,1-3.422-3.579,3.528,3.528,0,0,1,3.488-3.546A3.49,3.49,0,0,1,321.177,97.73Z" transform="translate(81.036 23.534)" fill="#f0acac"/>
    <path id="Trazado_823682" data-name="Trazado 823682" d="M316.069,98.111s.024-2.583,2.416-2.165" transform="translate(81.501 23.986)" fill="none" stroke="#12263f" stroke-linecap="round" stroke-linejoin="round" stroke-miterlimit="10" stroke-width="0.603"/>
    <path id="Trazado_823683" data-name="Trazado 823683" d="M337.31,87.221a8.625,8.625,0,1,1-9.942-7.061A8.616,8.616,0,0,1,337.31,87.221Z" transform="translate(82.562 19.892)" fill="#12263f"/>
    <path id="Trazado_823684" data-name="Trazado 823684" d="M495.538,238.276H.32" transform="translate(0 60.736)" fill="none" stroke="#281f27" stroke-miterlimit="10" stroke-width="0.757"/>
  </g>
</svg>
