<svg xmlns="http://www.w3.org/2000/svg" width="120" height="120" viewBox="0 0 120 120">
  <g id="Grupo_1071947" data-name="Grupo 1071947" transform="translate(-180 -550)">
    <path id="Trazado_829869" data-name="Trazado 829869" d="M60,0A60,60,0,1,1,0,60,60,60,0,0,1,60,0Z" transform="translate(180 550)" fill="#3b5620"/>
    <g id="cow_3_" data-name="cow (3)" transform="translate(198.486 555.447)">
      <g id="Grupo_1071628" data-name="Grupo 1071628" transform="translate(0 12.437)">
        <path id="Trazado_829293" data-name="Trazado 829293" d="M63.667,42.472c-3.93,7.753-10.438,7.591-17.142,7.149a1.218,1.218,0,0,0-.16,2.431c1.521.1,3.087.2,4.655.2,4.637,0,9.284-.905,12.8-5.468a8.533,8.533,0,0,0,1.627,3.353c.455.561.883,1.073,1.26,1.524,2.4,2.871,3.307,3.962,3.4,7.8a2.9,2.9,0,0,1-.814.259L62.45,60.848A25.166,25.166,0,0,0,45.613,71.7c-.042-.014-.083-.03-.126-.042a54.836,54.836,0,0,1-8.543-3.183l.138-.138a2.771,2.771,0,0,0,0-3.913l-2.607-2.607a1.218,1.218,0,1,0-1.723,1.723l2.607,2.607a.331.331,0,0,1,0,.467L28.474,73.5a.33.33,0,0,1-.467,0L14.5,59.989a.33.33,0,0,1,0-.467l6.885-6.885a.33.33,0,0,1,.467,0l6.777,6.777a1.218,1.218,0,0,0,1.723-1.723l-1.2-1.2c.427-.347.847-.709,1.254-1.085,2.581-2.389,5.737-3.492,10.232-3.576a1.218,1.218,0,0,0-.022-2.436h-.023c-3.459.065-7.93.6-11.842,4.224-.431.4-.877.781-1.33,1.142l-3.842-3.842a2.767,2.767,0,0,0-3.913,0l-1.244,1.244a46.515,46.515,0,0,1-2.991-5.61,52.291,52.291,0,0,1-4.261-16.375l4.252.012h0a1.217,1.217,0,0,0,.31-.04l.75-.2v5.368a4.675,4.675,0,0,0,4.669,4.669h4.975a4.675,4.675,0,0,0,4.669-4.669V27.871a4.675,4.675,0,0,0-4.669-4.67H23.136a11.155,11.155,0,0,1,.66-6.584,2.867,2.867,0,0,1,2.6-1.744A11.06,11.06,0,0,1,37.3,28.483a1.218,1.218,0,1,0,2.371.561,13.5,13.5,0,0,0,.185-5.25l1.425-.375L48.4,24.576A2.953,2.953,0,0,1,50.631,26.3l1.2,2.727a10.156,10.156,0,0,0,4.029,4.6l1.69,1.029a1.218,1.218,0,0,0,1.268-2.081l-1.69-1.029a7.731,7.731,0,0,1-3.067-3.5l-1.2-2.731a5.383,5.383,0,0,0-4.064-3.14l-7.38-1.2a1.222,1.222,0,0,0-.505.024l-1.654.435a13.469,13.469,0,0,0-12.723-8.995h-.16a5.3,5.3,0,0,0-4.817,3.225,13.613,13.613,0,0,0-.892,7.563,4.678,4.678,0,0,0-4.164,4.2l-1.238.326-4.608-.013a2.773,2.773,0,0,0-2.3-1.3l-2.333-.033H5.983a2.755,2.755,0,0,0-2.351,1.309l-2.411-.007h0a1.218,1.218,0,0,0,0,2.437l2.057.006a59.837,59.837,0,0,0,4.886,19.4,53.988,53.988,0,0,0,4.58,8.291,2.743,2.743,0,0,0-.77,1.8,32.58,32.58,0,0,1-4.753-.477,1.218,1.218,0,0,0-.417,2.4,34.555,34.555,0,0,0,5.906.525c.147,0,.294,0,.44,0l13.14,13.14a2.77,2.77,0,0,0,3.913,0l.9-.9a60.844,60.844,0,0,0,11.213,4.589,25.286,25.286,0,0,0-.695,3.387l-.461,3.439A1.218,1.218,0,0,0,42.2,87.11a1.238,1.238,0,0,0,.164.011,1.219,1.219,0,0,0,1.206-1.057l.461-3.439a22.814,22.814,0,0,1,.707-3.341,2.773,2.773,0,0,0,2.109-2.022l.578-2.251a2.763,2.763,0,0,0-.047-1.548A22.728,22.728,0,0,1,62.845,63.252l6.838-1.122a5.366,5.366,0,0,0,2.387-1.022l5.053-3.83a5.408,5.408,0,0,0,2.136-4.292v-4.94a5.43,5.43,0,0,0-2.587-4.6L63.809,35.61a1.218,1.218,0,1,0-1.267,2.081l2.217,1.35a12.078,12.078,0,0,0-1.092,3.431Zm3.672,6.134c-1.674-2.063-1.846-5.386-.489-8.292L75.4,45.523a2.977,2.977,0,0,1,1.419,2.523v4.94a2.959,2.959,0,0,1-1.17,2.349L72.44,57.771c-.377-3.491-1.7-5.074-3.863-7.667C68.186,49.636,67.783,49.153,67.338,48.606ZM18.914,27.871a2.235,2.235,0,0,1,2.233-2.233h4.975a2.235,2.235,0,0,1,2.233,2.233v7.445a2.235,2.235,0,0,1-2.233,2.233H21.147a2.235,2.235,0,0,1-2.233-2.233ZM5.653,29.19a.324.324,0,0,1,.092-.246.314.314,0,0,1,.243-.1l2.333.033a.331.331,0,0,1,.325.311A54.517,54.517,0,0,0,13.2,47.546a48.794,48.794,0,0,0,3.449,6.378L14.492,56.08a51.711,51.711,0,0,1-4.107-7.521A56.939,56.939,0,0,1,5.653,29.19ZM45.061,74.405l-.578,2.251a.333.333,0,0,1-.157.206.311.311,0,0,1-.244.032A59.319,59.319,0,0,1,32.9,72.521L35.121,70.3A56.791,56.791,0,0,0,44.823,74a.332.332,0,0,1,.238.4Z" transform="translate(0 -12.437)" fill="#f6f6f6"/>
        <path id="Trazado_829294" data-name="Trazado 829294" d="M355.272,367.6h-1.341a7.624,7.624,0,0,0-1.486-8.326,7.182,7.182,0,0,0-10.348,0l-1.055,1.085-1.055-1.085a7.318,7.318,0,0,0-9.051-.918l-.2.137a7.235,7.235,0,0,0-1.131,11.287h-1.889a1.218,1.218,0,1,0,0,2.437h4.257l6.641,6.83a3.374,3.374,0,0,0,4.856,0l8.761-9.01h3.04a1.218,1.218,0,0,0,0-2.437Zm-23.885.519a5.031,5.031,0,0,1-1.52-4.02,4.963,4.963,0,0,1,2.248-3.6l.2-.137a4.486,4.486,0,0,1,2.533-.739,4.77,4.77,0,0,1,3.393,1.346l1.928,1.983a1.219,1.219,0,0,0,1.747,0l1.928-1.983a4.746,4.746,0,0,1,6.854,0,5.168,5.168,0,0,1,.439,6.628h-7.725a1.218,1.218,0,0,0-1.115.728l-.3.675-.905-3.139a1.218,1.218,0,0,0-2.207-.3l-2.608,4.219H333Zm10.337,9.229a.938.938,0,0,1-1.363,0l-4.99-5.132h1.588a1.219,1.219,0,0,0,1.036-.578l1.52-2.458,1.076,3.729a1.218,1.218,0,0,0,1.089.878l.082,0a1.218,1.218,0,0,0,1.115-.728l1.331-3.026h4.626Z" transform="translate(-273.462 -301.092)" fill="#f6f6f6"/>
        <path id="Trazado_829295" data-name="Trazado 829295" d="M137.39,288.218l-6.266-6.265a1.218,1.218,0,1,0-1.723,1.723l6.266,6.265a1.218,1.218,0,1,0,1.723-1.723Z" transform="translate(-108.082 -237.874)" fill="#f6f6f6"/>
        <path id="Trazado_829296" data-name="Trazado 829296" d="M148.813,339.684a1.222,1.222,0,1,0,1.729.018l-.011-.011A1.211,1.211,0,0,0,148.813,339.684Z" transform="translate(-124.338 -286.229)" fill="#f6f6f6"/>
        <path id="Trazado_829297" data-name="Trazado 829297" d="M165.245,356.115a1.222,1.222,0,1,0,1.728.018l-.011-.011A1.211,1.211,0,0,0,165.245,356.115Z" transform="translate(-138.101 -299.992)" fill="#f6f6f6"/>
        <path id="Trazado_829298" data-name="Trazado 829298" d="M258.93,137.875a4.108,4.108,0,0,0-4.02,3.3,1.218,1.218,0,1,0,2.39.476,1.663,1.663,0,0,1,3.261,0,1.218,1.218,0,0,0,2.39-.476A4.108,4.108,0,0,0,258.93,137.875Z" transform="translate(-213.482 -117.499)" fill="#f6f6f6"/>
        <path id="Trazado_829299" data-name="Trazado 829299" d="M432.933,216.683a1.218,1.218,0,0,0-.447-1.664l-1.27-.732A1.218,1.218,0,0,0,430,216.4l1.27.732a1.218,1.218,0,0,0,1.664-.447Z" transform="translate(-359.639 -181.362)" fill="#f6f6f6"/>
      </g>
    </g>
  </g>
</svg>
