<svg xmlns="http://www.w3.org/2000/svg" width="120" height="120" viewBox="0 0 120 120">
  <g id="Grupo_1071948" data-name="Grupo 1071948" transform="translate(-810 -550)">
    <path id="Trazado_829870" data-name="Trazado 829870" d="M60,0A60,60,0,1,1,0,60,60,60,0,0,1,60,0Z" transform="translate(810 550)" fill="#3b5620"/>
    <g id="nature" transform="translate(755.326 494.813)">
      <path id="Trazado_829308" data-name="Trazado 829308" d="M85.183,789.786a1.18,1.18,0,0,1-.981-1.835,18.172,18.172,0,0,1,6.728-5.962,20.519,20.519,0,0,1,16.776-.855,18.82,18.82,0,0,1,6.052,3.807,17.423,17.423,0,0,1,2.557,3.011,1.18,1.18,0,1,1-1.962,1.311,15.116,15.116,0,0,0-2.212-2.6,17.22,17.22,0,0,0-11.883-4.561,16.983,16.983,0,0,0-14.1,7.163A1.18,1.18,0,0,1,85.183,789.786Z" transform="translate(-0.003 -644.438)" fill="#fff"/>
      <path id="Trazado_829309" data-name="Trazado 829309" d="M485.611,801.736a1.18,1.18,0,0,1-.965-.5,15.157,15.157,0,0,0-22.11-2.595,1.18,1.18,0,0,1-1.545-1.784,17.517,17.517,0,0,1,25.583,3.019,1.18,1.18,0,0,1-.964,1.86Z" transform="translate(-348.817 -656.388)" fill="#fff"/>
      <path id="Trazado_829310" data-name="Trazado 829310" d="M136.795,886.36H85.18a1.18,1.18,0,0,1,0-2.36h51.615a1.18,1.18,0,1,1,0,2.36Z" transform="translate(0 -741.012)" fill="#fff"/>
      <path id="Trazado_829311" data-name="Trazado 829311" d="M487.377,405.9a10.841,10.841,0,0,1-10.637-11.006v-.02a7.334,7.334,0,0,1,1.243-4.036l8.413-12.719a1.18,1.18,0,0,1,1.969,0l8.406,12.72a7.337,7.337,0,0,1,1.242,4.032v.026A10.833,10.833,0,0,1,487.377,405.9Zm0-25-7.424,11.233a4.981,4.981,0,0,0-.852,2.737v.02a8.285,8.285,0,1,0,16.555,0v-.02a4.984,4.984,0,0,0-.851-2.733Z" transform="translate(-363.781 -271.942)" fill="#fff"/>
      <path id="Trazado_829312" data-name="Trazado 829312" d="M606.18,505.171a1.18,1.18,0,0,1-1.18-1.18V480.92a1.18,1.18,0,1,1,2.359,0v23.072A1.18,1.18,0,0,1,606.18,505.171Z" transform="translate(-482.584 -366.56)" fill="#fff"/>
      <path id="Trazado_829313" data-name="Trazado 829313" d="M546.326,589.611a1.18,1.18,0,0,1-.834-.345l-4.757-4.756a1.18,1.18,0,1,1,1.668-1.669l3.923,3.923,3.927-3.927a1.18,1.18,0,1,1,1.669,1.668l-4.762,4.762A1.175,1.175,0,0,1,546.326,589.611Z" transform="translate(-422.738 -461.734)" fill="#fff"/>
      <path id="Trazado_829314" data-name="Trazado 829314" d="M144.615,208.647a11.926,11.926,0,0,1-9.053-4.3,15.449,15.449,0,0,1-3.671-10.168,17.316,17.316,0,0,1,1.445-5.212l10.271-17.194a1.179,1.179,0,0,1,2.025,0l10.265,17.2a17.262,17.262,0,0,1,1.441,5.211,15.439,15.439,0,0,1-3.671,10.168,11.914,11.914,0,0,1-9.051,4.3ZM134.25,194.264c.038,6.636,4.673,12.025,10.365,12.025s10.328-5.389,10.363-12.025a15.255,15.255,0,0,0-1.11-4.082l-9.249-15.5-9.255,15.5A15.219,15.219,0,0,0,134.25,194.264Z" transform="translate(-44.359 -80.77)" fill="#fff"/>
      <path id="Trazado_829315" data-name="Trazado 829315" d="M291.7,344.348a1.18,1.18,0,0,1-1.18-1.18V308.32a1.18,1.18,0,1,1,2.359,0v34.849A1.18,1.18,0,0,1,291.7,344.348Z" transform="translate(-191.292 -206.687)" fill="#fff"/>
      <path id="Trazado_829316" data-name="Trazado 829316" d="M231.82,510.736a1.175,1.175,0,0,1-.835-.346l-4.757-4.756a1.18,1.18,0,1,1,1.669-1.669l3.923,3.922,3.927-3.927a1.18,1.18,0,1,1,1.668,1.669l-4.761,4.761A1.173,1.173,0,0,1,231.82,510.736Z" transform="translate(-131.421 -388.675)" fill="#fff"/>
      <path id="Trazado_829317" data-name="Trazado 829317" d="M231.82,393.469a1.18,1.18,0,0,1-.835-.346l-4.757-4.757A1.18,1.18,0,0,1,227.9,386.7l3.923,3.923,3.927-3.927a1.18,1.18,0,1,1,1.668,1.667l-4.761,4.762a1.18,1.18,0,0,1-.834.347Z" transform="translate(-131.421 -280.028)" fill="#fff"/>
      <path id="Trazado_829318" data-name="Trazado 829318" d="M688.491,169.34a5.9,5.9,0,1,1,5.9-5.9A5.9,5.9,0,0,1,688.491,169.34Zm0-9.431a3.536,3.536,0,1,0,3.539,3.536A3.536,3.536,0,0,0,688.491,159.91Z" transform="translate(-554.462 -68.127)" fill="#fff"/>
      <path id="Trazado_829319" data-name="Trazado 829319" d="M747.68,88.454a1.18,1.18,0,0,1-1.18-1.18V85.18a1.18,1.18,0,0,1,2.36,0v2.094A1.18,1.18,0,0,1,747.68,88.454Z" transform="translate(-613.65 0)" fill="#fff"/>
      <path id="Trazado_829320" data-name="Trazado 829320" d="M747.68,335.054a1.18,1.18,0,0,1-1.18-1.18V331.78a1.18,1.18,0,0,1,2.36,0v2.094A1.18,1.18,0,0,1,747.68,335.054Z" transform="translate(-613.65 -228.417)" fill="#fff"/>
      <path id="Trazado_829321" data-name="Trazado 829321" d="M652.557,128.736a1.18,1.18,0,0,1-.838-.346l-1.475-1.481a1.18,1.18,0,0,1,1.666-1.666l1.481,1.475a1.18,1.18,0,0,1-.834,2.014Z" transform="translate(-524.215 -37.926)" fill="#fff"/>
      <path id="Trazado_829322" data-name="Trazado 829322" d="M826.3,302.476a1.175,1.175,0,0,1-.835-.349l-1.481-1.475a1.182,1.182,0,0,1,1.672-1.672l1.475,1.481a1.18,1.18,0,0,1-.834,2.014Z" transform="translate(-685.097 -198.809)" fill="#fff"/>
      <path id="Trazado_829323" data-name="Trazado 829323" d="M613.544,223.86H611.47a1.18,1.18,0,1,1,0-2.36h2.074a1.18,1.18,0,0,1,0,2.36Z" transform="translate(-487.484 -127.361)" fill="#fff"/>
      <path id="Trazado_829324" data-name="Trazado 829324" d="M857.834,223.86H855.76a1.18,1.18,0,0,1,0-2.36h2.074a1.18,1.18,0,1,1,0,2.36Z" transform="translate(-713.761 -127.361)" fill="#fff"/>
      <path id="Trazado_829325" data-name="Trazado 829325" d="M612.274,223.86H610.18a1.18,1.18,0,1,1,0-2.36h2.094a1.18,1.18,0,1,1,0,2.36Z" transform="translate(-486.289 -127.361)" fill="#fff"/>
      <path id="Trazado_829326" data-name="Trazado 829326" d="M858.874,223.86H856.78a1.18,1.18,0,0,1,0-2.36h2.094a1.18,1.18,0,0,1,0,2.36Z" transform="translate(-714.706 -127.361)" fill="#fff"/>
      <path id="Trazado_829327" data-name="Trazado 829327" d="M650.484,302.476a1.18,1.18,0,0,1-.831-2.014l1.475-1.481a1.182,1.182,0,0,1,1.672,1.672l-1.481,1.475A1.175,1.175,0,0,1,650.484,302.476Z" transform="translate(-523.624 -198.809)" fill="#fff"/>
      <path id="Trazado_829328" data-name="Trazado 829328" d="M824.779,128.736a1.18,1.18,0,0,1-.834-2.017l1.481-1.475a1.18,1.18,0,0,1,1.666,1.666l-1.475,1.481A1.18,1.18,0,0,1,824.779,128.736Z" transform="translate(-685.062 -37.926)" fill="#fff"/>
    </g>
  </g>
</svg>
