<svg xmlns="http://www.w3.org/2000/svg" width="120" height="120" viewBox="0 0 120 120">
  <g id="Grupo_1071949" data-name="Grupo 1071949" transform="translate(-810 -787)">
    <path id="Trazado_829871" data-name="Trazado 829871" d="M60,0A60,60,0,1,1,0,60,60,60,0,0,1,60,0Z" transform="translate(810 787)" fill="#3b5620"/>
    <g id="eco" transform="translate(833.125 804.969)">
      <path id="Trazado_829286" data-name="Trazado 829286" d="M169.311,28.555C169.311,13.049,154.046.779,153.4.263a1.19,1.19,0,0,0-1.478,0C151.27.779,136,13.049,136,28.555c0,14.228,12.847,25.722,15.464,27.92V69a1.19,1.19,0,1,0,2.379,0V56.476c2.617-2.2,15.464-13.692,15.464-27.92ZM153.847,53.274V39.812l6.709-5.583a1.19,1.19,0,0,0-1.522-1.83l-5.187,4.318V32.672l6.709-5.584a1.19,1.19,0,0,0-1.522-1.829l-5.187,4.32V24.346l6.709-5.584a1.19,1.19,0,1,0-1.522-1.829l-5.187,4.32V11.9a1.19,1.19,0,1,0-2.379,0v9.351l-5.186-4.318a1.19,1.19,0,1,0-1.522,1.83l6.709,5.583v5.234l-5.186-4.318a1.19,1.19,0,1,0-1.522,1.83l6.709,5.581v4.044L146.282,32.4a1.19,1.19,0,1,0-1.522,1.83l6.709,5.581V53.274c-4.044-3.795-13.085-13.52-13.085-24.718,0-12.483,11.252-23.159,14.274-25.8,3.023,2.642,14.274,13.318,14.274,25.8,0,11.2-9.041,20.924-13.085,24.718Zm0,0" transform="translate(-115.783 0)" fill="#fff"/>
      <path id="Trazado_829287" data-name="Trazado 829287" d="M28.548,199.26h-1.19v-8.735a5.906,5.906,0,0,0-1.742-4.2L15.6,176.3a3.569,3.569,0,0,0-5.036,0l-1.051,1.054V164.763a4.765,4.765,0,0,0-5.1-4.747A4.886,4.886,0,0,0,0,164.964v16.992a5.939,5.939,0,0,0,1.547,4l10.349,11.384v1.919h-1.19a1.19,1.19,0,0,0-1.19,1.19v8.327a1.19,1.19,0,0,0,1.19,1.19H28.548a1.19,1.19,0,0,0,1.19-1.19v-8.327a1.19,1.19,0,0,0-1.19-1.19Zm-25.242-14.9a3.559,3.559,0,0,1-.928-2.4V164.964a2.533,2.533,0,0,1,2.2-2.574,2.386,2.386,0,0,1,1.857.692,2.357,2.357,0,0,1,.7,1.681v14.478a3.543,3.543,0,0,0,1.045,2.524l6.44,6.44a1.19,1.19,0,0,0,1.682-1.682l-5.46-5.46a1.18,1.18,0,0,1,0-1.672l1.4-1.4a1.19,1.19,0,0,1,1.672,0L23.934,188a3.587,3.587,0,0,1,1.045,2.522v8.735H14.274v-2.84Zm24.052,23.231H11.895v-5.948H27.359Zm0,0" transform="translate(0 -136.208)" fill="#fff"/>
      <path id="Trazado_829288" data-name="Trazado 829288" d="M321.33,160.017a4.765,4.765,0,0,0-5.1,4.747v12.592l-1.05-1.051a3.569,3.569,0,0,0-5.036,0L300.126,186.32a5.909,5.909,0,0,0-1.743,4.2v8.735h-1.19a1.19,1.19,0,0,0-1.19,1.19v8.327a1.19,1.19,0,0,0,1.19,1.19h17.843a1.19,1.19,0,0,0,1.19-1.19v-8.327a1.19,1.19,0,0,0-1.19-1.19h-1.19v-1.919L324.2,185.957a5.935,5.935,0,0,0,1.546-4V164.964a4.885,4.885,0,0,0-4.412-4.947Zm-7.483,47.57H298.383v-5.948h15.464Zm9.516-25.63a3.556,3.556,0,0,1-.928,2.4L311.468,196.42v2.84H300.762v-8.735A3.589,3.589,0,0,1,301.807,188l10.018-10.013a1.19,1.19,0,0,1,1.672,0l1.4,1.4a1.18,1.18,0,0,1,0,1.665l-5.463,5.463a1.189,1.189,0,1,0,1.682,1.681l6.44-6.44a3.55,3.55,0,0,0,1.044-2.521V164.763a2.362,2.362,0,0,1,.7-1.681,2.389,2.389,0,0,1,1.857-.692,2.532,2.532,0,0,1,2.2,2.574Zm0,0" transform="translate(-251.992 -136.208)" fill="#fff"/>
      <path id="Trazado_829289" data-name="Trazado 829289" d="M240.349,480.311a1.244,1.244,0,0,0-.345.845,1.628,1.628,0,0,0,.024.237.77.77,0,0,0,.071.214.935.935,0,0,0,.107.214,2,2,0,0,0,.143.178,1.206,1.206,0,0,0,1.689,0l.143-.178a.934.934,0,0,0,.107-.214.7.7,0,0,0,.07-.214,1.42,1.42,0,0,0,.025-.237,1.189,1.189,0,0,0-2.034-.845Zm0,0" transform="translate(-204.318 -408.588)" fill="#fff"/>
      <path id="Trazado_829290" data-name="Trazado 829290" d="M89.193,450.387h4.758a1.19,1.19,0,0,0,0-2.379H89.193a1.19,1.19,0,1,0,0,2.379Zm0,0" transform="translate(-74.92 -381.387)" fill="#fff"/>
      <path id="Trazado_829291" data-name="Trazado 829291" d="M144.74,450.3a1.188,1.188,0,1,0,0-2.189,1.221,1.221,0,0,0-.393.25,1.244,1.244,0,0,0-.345.845A1.143,1.143,0,0,0,144.74,450.3Zm0,0" transform="translate(-122.591 -381.398)" fill="#fff"/>
      <path id="Trazado_829292" data-name="Trazado 829292" d="M314.358,201.044a.7.7,0,0,0-.07-.214.919.919,0,0,0-.107-.214l-.143-.178a1.245,1.245,0,0,0-1.689,0,1.854,1.854,0,0,0-.143.178.92.92,0,0,0-.107.214.775.775,0,0,0-.071.214,1.825,1.825,0,0,0-.024.238,1.245,1.245,0,0,0,.345.845,1.226,1.226,0,0,0,.845.345,1.177,1.177,0,0,0,1.19-1.19A1.561,1.561,0,0,0,314.358,201.044Zm0,0" transform="translate(-265.613 -170.347)" fill="#fff"/>
    </g>
  </g>
</svg>
