<svg xmlns="http://www.w3.org/2000/svg" width="120" height="120" viewBox="0 0 120 120">
  <g id="Grupo_1071950" data-name="Grupo 1071950" transform="translate(-810 -1024.001)">
    <path id="Trazado_829872" data-name="Trazado 829872" d="M60,0A60,60,0,1,1,0,60,60,60,0,0,1,60,0Z" transform="translate(810 1024.001)" fill="#3b5620"/>
    <path id="safety" d="M38.053,54.078A29.085,29.085,0,0,0,9,83.129c0,4.1,3.277,7.471,9.475,9.753,5.184,1.908,12.136,2.959,19.576,2.959s14.393-1.051,19.576-2.959c6.2-2.282,9.475-5.655,9.475-9.753A29.083,29.083,0,0,0,38.053,54.078Zm10.172,4.333a26.666,26.666,0,0,1,3.606,1.82V70.241a1.8,1.8,0,1,1-3.606,0Zm-2.32-.836v8.431H30.2V57.577a26.771,26.771,0,0,1,15.706,0ZM24.273,60.232a26.667,26.667,0,0,1,3.606-1.82V70.241a1.8,1.8,0,0,1-3.606,0ZM11.32,83.129A26.7,26.7,0,0,1,21.952,61.805V78.923c0,3.676-1.773,7.484-5.009,10.795C14.02,88.3,11.32,86.162,11.32,83.129ZM38.052,93.521c-7.173,0-13.841-1-18.774-2.817l-.057-.021c3.27-3.6,5.052-7.721,5.052-11.761V73.949A4.123,4.123,0,0,0,30.2,70.241V68.328H45.9v1.913a4.123,4.123,0,0,0,5.926,3.708v4.974c0,4.04,1.783,8.163,5.052,11.761l-.057.021c-4.933,1.816-11.6,2.817-18.774,2.817Zm21.108-3.8c-3.235-3.311-5.009-7.119-5.009-10.795V61.8A26.7,26.7,0,0,1,64.783,83.129C64.783,86.162,62.083,88.3,59.16,89.718ZM20.39,39.84h3.442a14.047,14.047,0,0,0,28,0h3.441a1.16,1.16,0,1,0,0-2.32H54.182a16.227,16.227,0,0,0-3.27-8.721,16.559,16.559,0,0,0-7.473-5.525v-.908a4.646,4.646,0,0,0-4.64-4.641H36.862a4.646,4.646,0,0,0-4.641,4.641v.908A16.56,16.56,0,0,0,24.746,28.8a16.225,16.225,0,0,0-3.266,8.717H20.39a1.16,1.16,0,1,0,0,2.32ZM37.831,50.41A11.747,11.747,0,0,1,26.158,39.84H49.5A11.747,11.747,0,0,1,37.831,50.41ZM32.222,25.767v4.651a1.16,1.16,0,0,0,2.32,0V24.135c0-.018,0-.035,0-.053V22.366a2.323,2.323,0,0,1,2.32-2.32H38.8a2.323,2.323,0,0,1,2.32,2.32v1.716c0,.018,0,.036,0,.053v6.283a1.16,1.16,0,1,0,2.32,0V25.767A13.988,13.988,0,0,1,51.859,37.52H23.8A13.986,13.986,0,0,1,32.222,25.767ZM89.808,41.411a19.229,19.229,0,0,1-9.386-3.676,1.159,1.159,0,0,0-.674-.216H71.488a1.16,1.16,0,0,0-.674.216,19.227,19.227,0,0,1-9.386,3.676,1.16,1.16,0,0,0-1.068,1.157V54.886c0,8.714,8.687,15.682,14.958,17.363a1.163,1.163,0,0,0,.6,0c6.271-1.68,14.958-8.649,14.958-17.363V42.568A1.16,1.16,0,0,0,89.808,41.411ZM88.556,54.886c0,7.316-7.543,13.443-12.938,15.037C70.223,68.328,62.68,62.2,62.68,54.886V43.606a21.656,21.656,0,0,0,9.175-3.765h7.526a21.66,21.66,0,0,0,9.175,3.765v11.28ZM72.529,57.4l9.357-7.6a1.16,1.16,0,1,1,1.463,1.8L73.006,60a1.16,1.16,0,0,1-1.695-.254l-3.655-5.443a1.16,1.16,0,0,1,1.926-1.294ZM47.345,75.636H28.759A1.16,1.16,0,0,0,27.6,76.8V88.579a1.16,1.16,0,0,0,1.16,1.16H47.345a1.16,1.16,0,0,0,1.16-1.16V76.8A1.16,1.16,0,0,0,47.345,75.636Zm-1.16,11.782H29.919V77.957H46.184Z" transform="translate(824.124 1025.896)" fill="#fff"/>
  </g>
</svg>
