<svg xmlns="http://www.w3.org/2000/svg" width="295" height="472" viewBox="0 0 295 472">
  <g id="Grupo_1071817" data-name="Grupo 1071817" transform="translate(-180 -4246)">
    <rect id="Rectángulo_376410" data-name="Rectángulo 376410" width="295" height="472" rx="19" transform="translate(180 4246)" fill="#fffad0"/>
    <g id="ley_2_" data-name="ley (2)" transform="translate(203 4351.435)">
      <g id="Grupo_1071650" data-name="Grupo 1071650" transform="translate(51.927 164.56)">
        <g id="Grupo_1071641" data-name="Grupo 1071641" transform="translate(0 13.65)">
          <path id="Trazado_829341" data-name="Trazado 829341" d="M129.167,382.064c0,19.323,9.176,28.614,9.176,28.614H118.429a4.969,4.969,0,0,1-4.06-2.077c-2.648-3.719-7.509-12.47-7.509-26.537s4.861-22.823,7.509-26.542a4.969,4.969,0,0,1,4.06-2.077h19.914S129.167,362.736,129.167,382.064Z" transform="translate(-106.86 -353.444)" fill="#632059"/>
          <path id="Trazado_829342" data-name="Trazado 829342" d="M138.344,353.445s-8.916,9.026-9.171,27.8L110.49,401.478a50.248,50.248,0,0,1-3.629-19.413c0-14.072,4.861-22.823,7.509-26.542a4.969,4.969,0,0,1,4.06-2.077h19.914Z" transform="translate(-106.861 -353.444)" fill="#632059"/>
          <path id="Trazado_829343" data-name="Trazado 829343" d="M300.852,382.061a43.456,43.456,0,0,0,10.432,28.618H151.641s-9.177-9.292-9.177-28.618,9.177-28.618,9.177-28.618H311.284A43.456,43.456,0,0,0,300.852,382.061Z" transform="translate(-125.163 -353.443)" fill="#e0d3ce"/>
          <g id="Grupo_1071640" data-name="Grupo 1071640" transform="translate(17.301 0.001)">
            <path id="Trazado_829344" data-name="Trazado 829344" d="M173.136,353.445,142.629,386.49c-.1-1.412-.165-2.888-.165-4.425,0-19.328,9.176-28.619,9.176-28.619Z" transform="translate(-142.464 -353.445)" fill="#cdbfbb"/>
            <path id="Trazado_829345" data-name="Trazado 829345" d="M448.4,382.067a43.449,43.449,0,0,0,10.433,28.616H439.914a44.463,44.463,0,0,1,0-57.233H458.83A43.435,43.435,0,0,0,448.4,382.067Z" transform="translate(-290.009 -353.448)" fill="#cdbfbb"/>
          </g>
        </g>
        <g id="Grupo_1071645" data-name="Grupo 1071645" transform="translate(21.54)">
          <g id="Grupo_1071643" data-name="Grupo 1071643" transform="translate(0.001)">
            <path id="Trazado_829346" data-name="Trazado 829346" d="M326.516,333.662a8.307,8.307,0,0,1-8.305,8.305H159.494a8.308,8.308,0,0,1,0-16.615H318.211A8.307,8.307,0,0,1,326.516,333.662Z" transform="translate(-151.189 -325.352)" fill="#632059"/>
            <g id="Grupo_1071642" data-name="Grupo 1071642">
              <path id="Trazado_829347" data-name="Trazado 829347" d="M190.221,325.352l-15.333,16.615H159.494a8.308,8.308,0,0,1,0-16.615Z" transform="translate(-151.189 -325.352)" fill="#632059"/>
              <path id="Trazado_829348" data-name="Trazado 829348" d="M486.163,333.661a8.315,8.315,0,0,1-8.312,8.311H461.74a8.308,8.308,0,0,0,0-16.616h16.112A8.309,8.309,0,0,1,486.163,333.661Z" transform="translate(-310.832 -325.354)" fill="#632059"/>
            </g>
          </g>
          <g id="Grupo_1071644" data-name="Grupo 1071644" transform="translate(0 67.921)">
            <path id="Trazado_829349" data-name="Trazado 829349" d="M318.209,481.739H159.493a8.307,8.307,0,0,1,0-16.614H318.209a8.307,8.307,0,1,1,0,16.614Z" transform="translate(-151.186 -465.125)" fill="#632059"/>
            <path id="Trazado_829350" data-name="Trazado 829350" d="M486.163,473.434a8.3,8.3,0,0,1-8.312,8.3H461.74a8.3,8.3,0,1,0,0-16.609h16.112A8.309,8.309,0,0,1,486.163,473.434Z" transform="translate(-310.83 -465.128)" fill="#632059"/>
          </g>
        </g>
        <g id="Grupo_1071649" data-name="Grupo 1071649" transform="translate(17.502 29.925)">
          <g id="Grupo_1071646" data-name="Grupo 1071646">
            <path id="Trazado_829351" data-name="Trazado 829351" d="M222.332,390.69a3.752,3.752,0,0,1-3.754,3.754h-75.7a51.774,51.774,0,0,1,1.166-7.509h74.535A3.753,3.753,0,0,1,222.332,390.69Z" transform="translate(-142.876 -386.935)" fill="#cdbfbb"/>
          </g>
          <g id="Grupo_1071647" data-name="Grupo 1071647" transform="translate(102.884 0)">
            <path id="Trazado_829352" data-name="Trazado 829352" d="M411.6,386.936a44.353,44.353,0,0,0-1.447,7.509h-51.8a3.754,3.754,0,0,1,0-7.509H411.6Z" transform="translate(-354.599 -386.936)" fill="#cdbfbb"/>
          </g>
          <g id="Grupo_1071648" data-name="Grupo 1071648" transform="translate(28.103 17.056)">
            <path id="Trazado_829353" data-name="Trazado 829353" d="M291.931,429.543H204.462a3.754,3.754,0,0,1,0-7.509h87.469a3.754,3.754,0,1,1,0,7.509Z" transform="translate(-200.708 -422.034)" fill="#cdbfbb"/>
          </g>
        </g>
      </g>
      <g id="Grupo_1071659" data-name="Grupo 1071659" transform="translate(0 12.565)">
        <g id="Grupo_1071653" data-name="Grupo 1071653" transform="translate(0 95.459)">
          <g id="Grupo_1071651" data-name="Grupo 1071651" transform="translate(0 31.776)">
            <path id="Trazado_829354" data-name="Trazado 829354" d="M109.353,287.81,95.942,274.4,4.65,358.674A14.456,14.456,0,1,0,25.078,379.1Z" transform="translate(0 -274.399)" fill="#873f30"/>
            <path id="Trazado_829355" data-name="Trazado 829355" d="M25.426,383.887a14.462,14.462,0,0,1-20.439,0,14.312,14.312,0,0,1-3.525-5.76,14.435,14.435,0,0,0,14.67-3.513c.138-.138.277-.286.412-.429l84.277-91.294,9.286,9.286L25.829,383.466c-.135.143-.269.286-.4.42Z" transform="translate(-0.751 -278.762)" fill="#6c3328"/>
          </g>
          <path id="Trazado_829356" data-name="Trazado 829356" d="M219.544,209.008l-30.881,36.837,12.615,12.615,36.837-30.881Z" transform="translate(-96.985 -209.008)" fill="#873f30"/>
          <path id="Trazado_829357" data-name="Trazado 829357" d="M224.8,209.008l-9.979,11.9,2.994,2.994a5.643,5.643,0,0,1,0,7.98l-18.927,18.927,7.646,7.646,36.836-30.881Z" transform="translate(-102.241 -209.008)" fill="#6c3328"/>
          <g id="Grupo_1071652" data-name="Grupo 1071652" transform="translate(81.459 29.294)">
            <path id="Trazado_829358" data-name="Trazado 829358" d="M182.534,297.013l-12.246-12.246a9.065,9.065,0,1,1,12.82-12.82l12.246,12.246a9.065,9.065,0,1,1-12.82,12.821Z" transform="translate(-167.633 -269.292)" fill="#ba5d4f"/>
            <path id="Trazado_829359" data-name="Trazado 829359" d="M201.291,302.956a9.066,9.066,0,0,1-12.821,0l-9.282-9.282a9.065,9.065,0,0,0,12.82-12.82l9.282,9.282A9.061,9.061,0,0,1,201.291,302.956Z" transform="translate(-173.574 -275.236)" fill="#a34f41"/>
          </g>
        </g>
        <g id="Grupo_1071656" data-name="Grupo 1071656" transform="translate(95.872 11.268)">
          <g id="Grupo_1071654" data-name="Grupo 1071654" transform="translate(0 0)">
            <path id="Trazado_829360" data-name="Trazado 829360" d="M0,0H38.459V60.379H0Z" transform="translate(42.688 0) rotate(45)" fill="#ba5d4f"/>
          </g>
          <g id="Grupo_1071655" data-name="Grupo 1071655" transform="translate(59.559 59.595)">
            <path id="Trazado_829361" data-name="Trazado 829361" d="M0,0H38.459V60.379H0Z" transform="translate(27.19 69.878) rotate(-135)" fill="#a34f41"/>
          </g>
        </g>
        <g id="Grupo_1071658" data-name="Grupo 1071658" transform="translate(84.592)">
          <path id="Trazado_829362" data-name="Trazado 829362" d="M177.711,75.891l-.945-.945a9.172,9.172,0,0,1,0-12.97l46.724-46.724a9.172,9.172,0,0,1,12.97,0l.945.945a9.172,9.172,0,0,1,0,12.97L190.681,75.891A9.172,9.172,0,0,1,177.711,75.891Z" transform="translate(-174.081 -12.565)" fill="#873f30"/>
          <path id="Trazado_829363" data-name="Trazado 829363" d="M353.714,251.893l.945.945a9.172,9.172,0,0,0,12.97,0l46.724-46.724a9.172,9.172,0,0,0,0-12.97l-.945-.945a9.172,9.172,0,0,0-12.97,0l-46.724,46.724A9.172,9.172,0,0,0,353.714,251.893Z" transform="translate(-265.042 -103.527)" fill="#6c3328"/>
          <g id="Grupo_1071657" data-name="Grupo 1071657" transform="translate(23.614 23.614)">
            <path id="Trazado_829364" data-name="Trazado 829364" d="M0,0H43.189V91.19H0Z" transform="translate(69.344 4.855) rotate(45)" fill="#fcc16d"/>
            <path id="Trazado_829365" data-name="Trazado 829365" d="M0,0H91.19V21.859H0Z" transform="translate(19.935 84.442) rotate(-45)" fill="#fca62f"/>
            <path id="Trazado_829366" data-name="Trazado 829366" d="M292.168,64.731l-7.481-3.058a6.879,6.879,0,0,0-7.467,1.5l-52.53,52.53a6.878,6.878,0,0,0-1.5,7.467l3.059,7.481a4.586,4.586,0,0,0,7.487,1.507l59.942-59.943a4.586,4.586,0,0,0-1.507-7.487Z" transform="translate(-222.676 -61.161)" fill="#873f30"/>
            <path id="Trazado_829367" data-name="Trazado 829367" d="M358.173,130.736l3.059,7.481a6.879,6.879,0,0,1-1.5,7.467l-52.53,52.53a6.878,6.878,0,0,1-7.467,1.5l-7.481-3.058a4.586,4.586,0,0,1-1.507-7.487l59.942-59.942A4.586,4.586,0,0,1,358.173,130.736Z" transform="translate(-256.976 -95.461)" fill="#6c3328"/>
          </g>
        </g>
      </g>
    </g>
  </g>
</svg>
