<svg xmlns="http://www.w3.org/2000/svg" width="97.39" height="97.389" viewBox="0 0 97.39 97.389">
  <g id="Grupo_246406" data-name="Grupo 246406" transform="translate(11077.183 12976.408)">
    <path id="Trazado_265723" data-name="Trazado 265723" d="M1093.3,103.834a3.242,3.242,0,1,1-3.243-3.242,3.244,3.244,0,0,1,3.243,3.242" transform="translate(-12164 -13077)" fill="#dbf9bd"/>
    <path id="Trazado_265724" data-name="Trazado 265724" d="M1116.029,103.834a3.243,3.243,0,1,1-3.243-3.242,3.244,3.244,0,0,1,3.243,3.242" transform="translate(-12164 -13077)" fill="#dbf9bd"/>
    <path id="Trazado_265725" data-name="Trazado 265725" d="M1138.755,103.834a3.242,3.242,0,1,1-3.243-3.242,3.244,3.244,0,0,1,3.243,3.242" transform="translate(-12164 -13077)" fill="#dbf9bd"/>
    <path id="Trazado_265726" data-name="Trazado 265726" d="M1161.481,103.834a3.242,3.242,0,1,1-3.243-3.242,3.244,3.244,0,0,1,3.243,3.242" transform="translate(-12164 -13077)" fill="#dbf9bd"/>
    <path id="Trazado_265727" data-name="Trazado 265727" d="M1184.207,103.834a3.242,3.242,0,1,1-3.243-3.242,3.244,3.244,0,0,1,3.243,3.242" transform="translate(-12164 -13077)" fill="#dbf9bd"/>
    <path id="Trazado_265728" data-name="Trazado 265728" d="M1090.06,129.8a3.242,3.242,0,1,1,3.243-3.243,3.243,3.243,0,0,1-3.243,3.243" transform="translate(-12164 -13077)" fill="#dbf9bd"/>
    <path id="Trazado_265729" data-name="Trazado 265729" d="M1090.06,152.529a3.243,3.243,0,1,1,3.243-3.243,3.243,3.243,0,0,1-3.243,3.243" transform="translate(-12164 -13077)" fill="#dbf9bd"/>
    <path id="Trazado_265730" data-name="Trazado 265730" d="M1090.06,175.255a3.242,3.242,0,1,1,3.243-3.243,3.243,3.243,0,0,1-3.243,3.243" transform="translate(-12164 -13077)" fill="#dbf9bd"/>
    <path id="Trazado_265731" data-name="Trazado 265731" d="M1090.06,197.981a3.242,3.242,0,1,1,3.243-3.241,3.242,3.242,0,0,1-3.243,3.241" transform="translate(-12164 -13077)" fill="#dbf9bd"/>
    <path id="Trazado_265732" data-name="Trazado 265732" d="M1112.786,129.8a3.242,3.242,0,1,1,3.243-3.243,3.243,3.243,0,0,1-3.243,3.243" transform="translate(-12164 -13077)" fill="#dbf9bd"/>
    <path id="Trazado_265733" data-name="Trazado 265733" d="M1112.786,152.529a3.243,3.243,0,1,1,3.243-3.243,3.243,3.243,0,0,1-3.243,3.243" transform="translate(-12164 -13077)" fill="#dbf9bd"/>
    <path id="Trazado_265734" data-name="Trazado 265734" d="M1112.786,175.255a3.242,3.242,0,1,1,3.243-3.243,3.243,3.243,0,0,1-3.243,3.243" transform="translate(-12164 -13077)" fill="#dbf9bd"/>
    <path id="Trazado_265735" data-name="Trazado 265735" d="M1112.786,197.981a3.242,3.242,0,1,1,3.243-3.241,3.242,3.242,0,0,1-3.243,3.241" transform="translate(-12164 -13077)" fill="#dbf9bd"/>
    <path id="Trazado_265736" data-name="Trazado 265736" d="M1135.512,129.8a3.242,3.242,0,1,1,3.243-3.243,3.243,3.243,0,0,1-3.243,3.243" transform="translate(-12164 -13077)" fill="#dbf9bd"/>
    <path id="Trazado_265737" data-name="Trazado 265737" d="M1135.512,152.529a3.243,3.243,0,1,1,3.243-3.243,3.243,3.243,0,0,1-3.243,3.243" transform="translate(-12164 -13077)" fill="#dbf9bd"/>
    <path id="Trazado_265738" data-name="Trazado 265738" d="M1135.512,175.255a3.242,3.242,0,1,1,3.243-3.243,3.243,3.243,0,0,1-3.243,3.243" transform="translate(-12164 -13077)" fill="#dbf9bd"/>
    <path id="Trazado_265739" data-name="Trazado 265739" d="M1135.512,197.981a3.242,3.242,0,1,1,3.243-3.241,3.242,3.242,0,0,1-3.243,3.241" transform="translate(-12164 -13077)" fill="#dbf9bd"/>
    <path id="Trazado_265740" data-name="Trazado 265740" d="M1158.238,129.8a3.242,3.242,0,1,1,3.243-3.243,3.243,3.243,0,0,1-3.243,3.243" transform="translate(-12164 -13077)" fill="#dbf9bd"/>
    <path id="Trazado_265741" data-name="Trazado 265741" d="M1158.238,152.529a3.243,3.243,0,1,1,3.243-3.243,3.243,3.243,0,0,1-3.243,3.243" transform="translate(-12164 -13077)" fill="#dbf9bd"/>
    <path id="Trazado_265742" data-name="Trazado 265742" d="M1158.238,175.255a3.242,3.242,0,1,1,3.243-3.243,3.243,3.243,0,0,1-3.243,3.243" transform="translate(-12164 -13077)" fill="#dbf9bd"/>
    <path id="Trazado_265743" data-name="Trazado 265743" d="M1158.238,197.981a3.242,3.242,0,1,1,3.243-3.241,3.242,3.242,0,0,1-3.243,3.241" transform="translate(-12164 -13077)" fill="#dbf9bd"/>
    <path id="Trazado_265744" data-name="Trazado 265744" d="M1180.964,129.8a3.242,3.242,0,1,1,3.243-3.243,3.243,3.243,0,0,1-3.243,3.243" transform="translate(-12164 -13077)" fill="#dbf9bd"/>
    <path id="Trazado_265745" data-name="Trazado 265745" d="M1180.964,152.529a3.243,3.243,0,1,1,3.243-3.243,3.243,3.243,0,0,1-3.243,3.243" transform="translate(-12164 -13077)" fill="#dbf9bd"/>
    <path id="Trazado_265746" data-name="Trazado 265746" d="M1180.964,175.255a3.242,3.242,0,1,1,3.243-3.243,3.243,3.243,0,0,1-3.243,3.243" transform="translate(-12164 -13077)" fill="#dbf9bd"/>
    <path id="Trazado_265747" data-name="Trazado 265747" d="M1180.964,197.981a3.242,3.242,0,1,1,3.243-3.241,3.242,3.242,0,0,1-3.243,3.241" transform="translate(-12164 -13077)" fill="#dbf9bd"/>
  </g>
</svg>
