<svg xmlns="http://www.w3.org/2000/svg" width="96" height="96" viewBox="0 0 96 96">
  <g id="Grupo_1070239" data-name="Grupo 1070239" transform="translate(-921.333 -418)">
    <g id="Grupo_1070349" data-name="Grupo 1070349">
      <g id="Grupo_246409" data-name="Grupo 246409" transform="translate(-430 123)">
        <circle id="Elipse_4282" data-name="Elipse 4282" cx="48" cy="48" r="48" transform="translate(1351.333 295)" fill="#1b3f5e"/>
      </g>
      <g id="XMLID_18_" transform="translate(938.664 435.107)">
        <g id="Grupo_1070365" data-name="Grupo 1070365" transform="translate(0 0)">
          <path id="Trazado_814891" data-name="Trazado 814891" d="M34.712,70.276a5.413,5.413,0,0,1,2.008-1.684,12.578,12.578,0,0,0-4.395-.762c-1.475.015-2.561.025-3.418.817a4.067,4.067,0,0,0-1.031,3.264l-5.7,1.355-5.7,1.36a4.079,4.079,0,0,0-2.392-2.446c-1.121-.314-2.093.164-3.413.817A12.567,12.567,0,0,0,7.1,75.662a5.349,5.349,0,0,1,2.551.6,5.543,5.543,0,0,1,2.387,2.446,14.274,14.274,0,0,0,2.008,10.982A13.876,13.876,0,0,0,21,94.661a8.106,8.106,0,0,0,6.463.872,8.145,8.145,0,0,0,5.381-3.7,13.925,13.925,0,0,0,3.976-7.584A14.283,14.283,0,0,0,33.681,73.54,5.543,5.543,0,0,1,34.712,70.276Z" transform="translate(-3.561 -34.032)" fill="#e7f2f1"/>
          <path id="Trazado_814892" data-name="Trazado 814892" d="M96.017,109.925c-.14.852-.01,2.133.588,2.347.7.254,1.993-.977,2.342-2.347a3.8,3.8,0,0,0-.543-2.87c-.03-.01-.065-.025-.095-.035A4.382,4.382,0,0,0,96.017,109.925Z" transform="translate(-48.149 -53.695)" fill="#e7f2f1"/>
          <path id="Trazado_814893" data-name="Trazado 814893" d="M103.533,72.844c.633-1.35.792-3.074.13-3.578-.144-.11-.717-.458-2.451.508a.953.953,0,0,1-1.375-.558c-.309-1.026-.817-2.292-1.44-2.3-.852-.01-1.594,2.332-1.759,4.106l-.015.194A8.225,8.225,0,0,0,95.416,86.9c.02-.015.035-.02.05-.03a.383.383,0,0,0,.045.065,8.213,8.213,0,0,0,8.022-14.091Z" transform="translate(-45.256 -33.576)" fill="#e7f2f1"/>
          <path id="Trazado_814894" data-name="Trazado 814894" d="M10.512,48.389A7.7,7.7,0,0,0,7.318,33.53c-.02-.14-.04-.274-.065-.419a7.275,7.275,0,0,0-.942-2.392c-.12.279-.239.558-.364.832s-.239.558-.359.832a3.774,3.774,0,0,0-1.066-.957,3.643,3.643,0,0,0-.832-.364c.144.812.264,1.689.344,2.626.025.249.035.488.05.727a7.7,7.7,0,0,0,6.428,13.971Z" transform="translate(0 -15.413)" fill="#e7f2f1"/>
          <path id="Trazado_814895" data-name="Trazado 814895" d="M61.329,28.057a3.835,3.835,0,0,1,.3-.4A22.174,22.174,0,0,0,66.8,13.309,6.606,6.606,0,0,0,70.6,16.7c1.739.548,4.061.384,4.335-.448.314-.952-2.446-1.555-4.131-4.758-.932-1.769-.8-2.935-1.963-3.672A4.11,4.11,0,0,0,65.6,7.539a6.266,6.266,0,0,0,.832-4.25C66.112,1.525,64.9-.144,64.3.01c-.458.115-.244,1.206-.972,2.755A7,7,0,0,1,61.7,4.938,14.032,14.032,0,0,0,56.645,4c-.159,0-.319,0-.478.01a13.923,13.923,0,0,0-4.629.952,7.23,7.23,0,0,1-1.629-2.2c-.727-1.55-.518-2.641-.972-2.755-.6-.154-1.809,1.515-2.133,3.279a6.381,6.381,0,0,0,.862,4.3,4.164,4.164,0,0,0-3.274.234c-1.161.737-1.026,1.9-1.958,3.672-1.689,3.2-4.445,3.807-4.131,4.758.274.832,2.6,1,4.335.448A6.8,6.8,0,0,0,46.5,13.269a22.076,22.076,0,0,0,.623,5.366c.05.2.1.414.159.623a22.392,22.392,0,0,0,4.39,8.4,3.835,3.835,0,0,1,.3.4,5.938,5.938,0,0,1,.727,1.679,4.1,4.1,0,0,0,7.9,0,6.1,6.1,0,0,1,.732-1.679Z" transform="translate(-19.206 0)" fill="#e7f2f1"/>
        </g>
        <g id="Grupo_1070367" data-name="Grupo 1070367" transform="translate(0 0)">
          <path id="Trazado_814896" data-name="Trazado 814896" d="M45.67,107.749a3.583,3.583,0,0,1-.369,2.5,8.145,8.145,0,0,1-5.381,3.7,8.106,8.106,0,0,1-6.463-.872A3.54,3.54,0,0,1,32,111.012c-.6-2.521,1.973-5.3,5.75-6.2s7.32.414,7.917,2.935Z" transform="translate(-16.013 -52.446)" fill="#f48ca7"/>
          <path id="Trazado_814897" data-name="Trazado 814897" d="M33.682,73.54a14.283,14.283,0,0,1,3.144,10.713,13.925,13.925,0,0,1-3.976,7.584,3.583,3.583,0,0,0,.369-2.5c-.6-2.521-4.146-3.837-7.917-2.935s-6.348,3.677-5.75,6.2a3.54,3.54,0,0,0,1.455,2.063,13.876,13.876,0,0,1-6.961-4.973,14.274,14.274,0,0,1-2.008-10.982A5.543,5.543,0,0,0,9.65,76.26a5.349,5.349,0,0,0-2.551-.6A12.567,12.567,0,0,1,10.682,73c1.32-.653,2.292-1.131,3.413-.817a4.079,4.079,0,0,1,2.392,2.446l5.7-1.36,5.7-1.355a4.067,4.067,0,0,1,1.031-3.264c.857-.792,1.943-.8,3.418-.817a12.578,12.578,0,0,1,4.395.762,5.413,5.413,0,0,0-2.008,1.684A5.536,5.536,0,0,0,33.682,73.54Zm-1.246,9.95a1.173,1.173,0,1,0-1.415-.872,1.175,1.175,0,0,0,1.415.872ZM17.622,87.023a1.173,1.173,0,1,0-1.41-.867,1.164,1.164,0,0,0,1.41.867Z" transform="translate(-3.562 -34.032)" fill="#fec4b9"/>
          <path id="Trazado_814898" data-name="Trazado 814898" d="M98.4,107.055a3.8,3.8,0,0,1,.543,2.87c-.349,1.37-1.644,2.6-2.342,2.347-.6-.214-.727-1.495-.588-2.347a4.382,4.382,0,0,1,2.292-2.9C98.339,107.03,98.374,107.045,98.4,107.055Z" transform="translate(-48.149 -53.695)" fill="#e15c63"/>
          <path id="Trazado_814899" data-name="Trazado 814899" d="M110.106,69.267c.663.5.5,2.227-.13,3.578a2.9,2.9,0,0,1-1.624,1.7c-.668.174-1.046-.274-1.759,0-1.261.483-1.171,2.3-1.754,2.347-.727.055-1.983-2.7-1.774-5.675l.015-.194c.164-1.774.907-4.116,1.759-4.106.623,0,1.131,1.271,1.44,2.3a.953.953,0,0,0,1.375.558c1.734-.967,2.307-.618,2.451-.508Z" transform="translate(-51.7 -33.576)" fill="#e15c63"/>
          <path id="Trazado_814900" data-name="Trazado 814900" d="M101.664,97.468a2,2,0,0,1,1.011,3.069c-.937,1.34-2.153,1.893-2.81,1.614s-1.066-1.52-.832-3.069a1.966,1.966,0,0,1,1.56-1.669,2.367,2.367,0,0,1,1.031.045A.094.094,0,0,0,101.664,97.468Z" transform="translate(-49.655 -48.857)" fill="#ffc05a"/>
          <g id="Grupo_1070366" data-name="Grupo 1070366" transform="translate(2.226 21.906)">
            <path id="Trazado_814901" data-name="Trazado 814901" d="M112.52,92.83a1.173,1.173,0,1,1-1.171,1.176A1.171,1.171,0,0,1,112.52,92.83Z" transform="translate(-58.093 -68.482)" fill="#543927"/>
            <path id="Trazado_814902" data-name="Trazado 814902" d="M96.07,89.3A1.173,1.173,0,1,1,94.9,90.471,1.173,1.173,0,0,1,96.07,89.3Z" transform="translate(-49.839 -66.711)" fill="#543927"/>
            <path id="Trazado_814903" data-name="Trazado 814903" d="M57.359,95.513a1.173,1.173,0,1,1-1.41-.867,1.175,1.175,0,0,1,1.41.867Z" transform="translate(-29.843 -69.376)" fill="#543927"/>
            <path id="Trazado_814904" data-name="Trazado 814904" d="M27.634,102.61a1.17,1.17,0,1,1-1.41-.872,1.164,1.164,0,0,1,1.41.872Z" transform="translate(-14.932 -72.935)" fill="#543927"/>
            <path id="Trazado_814905" data-name="Trazado 814905" d="M6.724,50.76a1.171,1.171,0,0,1-2.177.862A1.181,1.181,0,0,1,5.21,50.1,1.165,1.165,0,0,1,6.724,50.76Z" transform="translate(-4.467 -47)" fill="#543927"/>
            <path id="Trazado_814906" data-name="Trazado 814906" d="M22.032,44.71a1.171,1.171,0,1,1-1.52-.663A1.173,1.173,0,0,1,22.032,44.71Z" transform="translate(-12.145 -43.964)" fill="#543927"/>
          </g>
          <path id="Trazado_814907" data-name="Trazado 814907" d="M17.818,52.855c.3,1.021-1.849,2.626-3.717,3.363s-4.529,1.036-5,.085c-.13-.254-.229-.872.987-2.282a3.318,3.318,0,0,1,5.446-2.158c1.854.2,2.2.718,2.282.992Z" transform="translate(-4.53 -25.624)" fill="#f49c60"/>
          <path id="Trazado_814908" data-name="Trazado 814908" d="M14.842,38.393A7.691,7.691,0,1,1,4.085,34.417c-.015-.239-.025-.478-.05-.727-.08-.937-.2-1.814-.344-2.626a3.643,3.643,0,0,1,.832.364,3.774,3.774,0,0,1,1.066.957c.12-.274.239-.553.359-.832s.244-.553.364-.832a7.275,7.275,0,0,1,.942,2.392c.025.144.045.279.065.419A7.683,7.683,0,0,1,14.842,38.393ZM9.57,46.007c1.869-.737,4.021-2.342,3.717-3.363-.085-.274-.429-.792-2.282-.992a3.318,3.318,0,0,0-5.446,2.157c-1.216,1.41-1.116,2.028-.987,2.282.468.952,3.134.653,5-.085Zm1.883-6.423a1.173,1.173,0,1,0-1.52-.658A1.173,1.173,0,0,0,11.454,39.584ZM3.825,42.6a1.172,1.172,0,0,0-.857-2.182,1.181,1.181,0,0,0-.663,1.525A1.168,1.168,0,0,0,3.825,42.6Z" transform="translate(0 -15.413)" fill="#f9b132"/>
          <path id="Trazado_814909" data-name="Trazado 814909" d="M86.515,26.41a1.161,1.161,0,1,1-1.156,1.161A1.159,1.159,0,0,1,86.515,26.41Z" transform="translate(-42.827 -13.251)" fill="#543927"/>
          <path id="Trazado_814910" data-name="Trazado 814910" d="M61.84,26.41a1.161,1.161,0,1,1-1.161,1.161A1.158,1.158,0,0,1,61.84,26.41Z" transform="translate(-30.444 -13.251)" fill="#543927"/>
          <path id="Trazado_814911" data-name="Trazado 814911" d="M75.111,53.952a6.1,6.1,0,0,0-.732,1.679,4.1,4.1,0,0,1-7.9,0,5.938,5.938,0,0,0-.727-1.679,5.85,5.85,0,0,1,9.362,0Z" transform="translate(-32.988 -25.894)" fill="#655f68"/>
          <path id="Trazado_814912" data-name="Trazado 814912" d="M90.013,3.289a6.266,6.266,0,0,1-.832,4.25,5.243,5.243,0,0,0-1.58-1.47,14.858,14.858,0,0,0-2.322-1.131,7,7,0,0,0,1.634-2.172c.727-1.55.513-2.641.972-2.755.6-.154,1.809,1.515,2.128,3.279Z" transform="translate(-42.787 0)" fill="#b29576"/>
          <path id="Trazado_814913" data-name="Trazado 814913" d="M58.4,2.765a7.23,7.23,0,0,0,1.629,2.2,14.093,14.093,0,0,0-2.262,1.106,5.2,5.2,0,0,0-1.609,1.515,6.381,6.381,0,0,1-.862-4.3c.324-1.764,1.53-3.433,2.133-3.279.453.115.244,1.206.972,2.755Z" transform="translate(-27.7 0)" fill="#b29576"/>
          <path id="Trazado_814914" data-name="Trazado 814914" d="M98.316,18.877c1.684,3.2,4.445,3.807,4.131,4.758-.274.832-2.6,1-4.335.448a6.606,6.606,0,0,1-3.8-3.388,22.869,22.869,0,0,0-.3-3.588,5.313,5.313,0,0,0-.9-2.182,4.11,4.11,0,0,1,3.244.279c1.161.737,1.031,1.9,1.963,3.672Z" transform="translate(-46.716 -7.387)" fill="#655f68"/>
          <path id="Trazado_814915" data-name="Trazado 814915" d="M79.618,8.967A14.857,14.857,0,0,1,81.94,10.1,4.062,4.062,0,0,1,74.087,8.04c.159,0,.319-.01.478-.01A14.032,14.032,0,0,1,79.618,8.967Z" transform="translate(-37.126 -4.029)" fill="#655f68"/>
          <path id="Trazado_814916" data-name="Trazado 814916" d="M57.549,12.18c4.21.209,7.12,3.951,6.632,7.409-.508,3.578-4.6,6.4-8.789,5.157a22.076,22.076,0,0,1-.623-5.366,23.042,23.042,0,0,1,.3-3.548,5.271,5.271,0,0,1,.867-2.138,5.2,5.2,0,0,1,1.609-1.515Zm2.481,8.251a1.158,1.158,0,1,0-1.156,1.161A1.158,1.158,0,0,0,60.03,20.431Z" transform="translate(-27.479 -6.111)" fill="#655f68"/>
          <path id="Trazado_814917" data-name="Trazado 814917" d="M47.667,15a5.271,5.271,0,0,0-.867,2.138,23.042,23.042,0,0,0-.3,3.548,6.8,6.8,0,0,1-3.857,3.428c-1.739.548-4.061.384-4.335-.448-.314-.952,2.442-1.555,4.131-4.758.932-1.769.8-2.935,1.958-3.672A4.164,4.164,0,0,1,47.667,15Z" transform="translate(-19.206 -7.411)" fill="#d6eae8"/>
        </g>
        <g id="Grupo_1070371" data-name="Grupo 1070371" transform="translate(6.142 6.069)">
          <g id="XMLID_43_">
            <g id="Grupo_1070368" data-name="Grupo 1070368">
              <path id="Trazado_814918" data-name="Trazado 814918" d="M67.209,56.263s5.331,2.123,6.547-3.393a5.618,5.618,0,0,1,2.088,1.714,6.1,6.1,0,0,0-.732,1.679,4.1,4.1,0,0,1-7.9,0Z" transform="translate(-39.864 -32.595)" fill="#5d5560"/>
              <path id="Trazado_814919" data-name="Trazado 814919" d="M87.908,19.42a22.174,22.174,0,0,1-5.172,14.345,3.833,3.833,0,0,0-.3.4,5.618,5.618,0,0,0-2.088-1.714s8.341-8.49,4.778-20.274a5.243,5.243,0,0,1,1.58,1.47,5.313,5.313,0,0,1,.9,2.182A22.87,22.87,0,0,1,87.908,19.42Z" transform="translate(-46.456 -12.18)" fill="#d6eae8"/>
              <path id="Trazado_814920" data-name="Trazado 814920" d="M100.769,92.836c.658.279,1.873-.274,2.81-1.614,0,0,9.592-1.036,5.257-12.412A8.21,8.21,0,0,1,100.814,92.9a.383.383,0,0,1-.045-.065Z" transform="translate(-56.702 -45.61)" fill="#d6eae8"/>
              <path id="Trazado_814921" data-name="Trazado 814921" d="M41.466,111.21a7.3,7.3,0,0,0,2.95-4.19A3.507,3.507,0,0,1,45.756,109a3.583,3.583,0,0,1-.369,2.5,8.145,8.145,0,0,1-5.381,3.7,8.106,8.106,0,0,1-6.463-.872,3.54,3.54,0,0,1-1.455-2.063C36.713,113.288,39.638,112.476,41.466,111.21Z" transform="translate(-22.243 -59.764)" fill="#ea728c"/>
              <path id="Trazado_814922" data-name="Trazado 814922" d="M58.638,79.31a14.285,14.285,0,0,1,3.139,10.7A13.925,13.925,0,0,1,57.8,97.6a3.583,3.583,0,0,0,.369-2.5,3.507,3.507,0,0,0-1.34-1.978c5.212-3.548,1.923-13.458,1.809-13.807Z" transform="translate(-34.656 -45.861)" fill="#f7b6ad"/>
              <path id="Trazado_814923" data-name="Trazado 814923" d="M12.328,53.368a8.648,8.648,0,0,0,5.5-3.877c1.061-.742,1.834-1.609,1.644-2.247a.98.98,0,0,0-.543-.558,15.608,15.608,0,0,0-.149-6.791l0,0a7.706,7.706,0,0,1-6.458,13.483Z" transform="translate(-12.328 -26.083)" fill="#ef9d26"/>
            </g>
            <g id="Grupo_1070370" data-name="Grupo 1070370" transform="translate(0.927 20.972)">
              <path id="Trazado_814924" data-name="Trazado 814924" d="M78.187,56.667a2.513,2.513,0,0,0-1.17.218,2.567,2.567,0,0,0-.916.7.5.5,0,1,0,.769.634,1.577,1.577,0,0,1,.558-.426,1.514,1.514,0,0,1,.706-.132.506.506,0,0,0,.525-.47A.5.5,0,0,0,78.187,56.667Z" transform="translate(-45.195 -55.471)" fill="#524956"/>
              <path id="Trazado_814925" data-name="Trazado 814925" d="M70.577,56.885a2.519,2.519,0,0,0-1.168-.218.5.5,0,0,0-.471.525.506.506,0,0,0,.525.47,1.516,1.516,0,0,1,1.252.548.5.5,0,1,0,.782-.617A2.494,2.494,0,0,0,70.577,56.885Z" transform="translate(-41.658 -55.471)" fill="#524956"/>
              <path id="Trazado_814926" data-name="Trazado 814926" d="M55.179,71.754a3.914,3.914,0,0,0-1.644,1.774A3.755,3.755,0,0,0,53.19,75a.5.5,0,0,0,.481.514h.017a.5.5,0,0,0,.5-.482,2.773,2.773,0,0,1,.255-1.087,2.911,2.911,0,0,1,1.224-1.32.5.5,0,1,0-.486-.87Z" transform="translate(-33.757 -63.011)" fill="#f7b6ad"/>
              <path id="Trazado_814927" data-name="Trazado 814927" d="M18.305,82.351a3.951,3.951,0,0,0-2.267-.841.5.5,0,1,0-.045,1,2.946,2.946,0,0,1,1.689.623,2.907,2.907,0,0,1,.719.86.5.5,0,0,0,.436.256.491.491,0,0,0,.241-.063.5.5,0,0,0,.194-.677,3.891,3.891,0,0,0-.967-1.154Z" transform="translate(-14.856 -67.937)" fill="#f7b6ad"/>
              <path id="Trazado_814928" data-name="Trazado 814928" d="M40.4,111.3a.5.5,0,1,0-.969.23l.677,2.855a.5.5,0,0,0,.484.384.508.508,0,0,0,.115-.013.5.5,0,0,0,.37-.6Z" transform="translate(-26.848 -82.693)" fill="#ba6a7e"/>
              <path id="Trazado_814929" data-name="Trazado 814929" d="M49.541,109.124a.5.5,0,0,0-.969.23l.673,2.835c0,.017.014.05.02.067a.487.487,0,0,0,.462.325.52.52,0,0,0,.171-.03.5.5,0,0,0,.314-.6Z" transform="translate(-31.433 -81.599)" fill="#ba6a7e"/>
              <g id="Grupo_1070369" data-name="Grupo 1070369">
                <path id="Trazado_814930" data-name="Trazado 814930" d="M14.846,55.572a.5.5,0,0,0-.54.453l-.115,1.305a.5.5,0,0,0,.452.54l.044,0a.5.5,0,0,0,.5-.455l.115-1.305a.5.5,0,0,0-.452-.54Z" transform="translate(-14.189 -54.923)" fill="#e28b50"/>
                <path id="Trazado_814931" data-name="Trazado 814931" d="M18.53,54.4a.5.5,0,1,0-.668.739l.972.877a.5.5,0,0,0,.668-.739Z" transform="translate(-15.95 -54.27)" fill="#e28b50"/>
              </g>
            </g>
          </g>
        </g>
      </g>
    </g>
  </g>
</svg>
